<svg xmlns="http://www.w3.org/2000/svg" viewBox="0 0 119.32 270.75"><defs><style>.cls-1,.cls-12,.cls-8{fill:#f46e6a;}.cls-1,.cls-12,.cls-17,.cls-4,.cls-7{stroke:#841413;}.cls-1,.cls-12,.cls-14,.cls-16,.cls-17,.cls-18,.cls-23,.cls-29,.cls-4,.cls-7{stroke-miterlimit:10;}.cls-1,.cls-12,.cls-17,.cls-29,.cls-4{stroke-width:2px;}.cls-2{fill:#76110e;}.cls-25,.cls-3{fill:#644d49;}.cls-13,.cls-17,.cls-4,.cls-9{fill:#efcfd5;}.cls-12,.cls-13,.cls-27,.cls-4,.cls-6{opacity:0.8;}.cls-5{fill:#901515;}.cls-16,.cls-18,.cls-23,.cls-7{fill:none;}.cls-18,.cls-7{stroke-width:3px;}.cls-10{fill:#936861;}.cls-11{fill:#c23c2a;}.cls-14{fill:#fff;}.cls-14,.cls-16,.cls-18{stroke:#cfe0e5;}.cls-15{fill:#cfe0e5;}.cls-18{stroke-linecap:round;}.cls-19{fill:#ef1916;}.cls-20{fill:#f58895;}.cls-21{fill:#d23830;}.cls-22{fill:#f02427;}.cls-23{stroke:#e23d1f;stroke-width:0.5px;}.cls-24{fill:#e23d1f;}.cls-25{opacity:0.9;}.cls-26{fill:#ad241d;}.cls-26,.cls-28{opacity:0.6;}.cls-27{fill:#67150d;}.cls-28{fill:#732827;}.cls-29{fill:#f7f7fa;stroke:#f7f7fa;opacity:0.2;}</style></defs><title>Shirley temple</title><g id="Layer_2" data-name="Layer 2"><g id="Images"><path class="cls-1" d="M19.67,88.29A7.09,7.09,0,0,1,15,89.88,10.9,10.9,0,0,1,8.1,87.25C6.51,86,5.16,80.11,4.75,76.38L3.13,61.51l11.19,2.24Z"/><path class="cls-2" d="M59,195s11.63.79,20-3.33,11.33-8,11.33-8A29,29,0,0,0,94,172.38c.38-5.75-.75-6.5,0-9.19s8.63-14.81,11-23.06-.37-31.12,0-35.75,12-24.25,12.34-37.25,1.57-11.5,1.5-16.75S115.94,33,115.94,33,106.75,16.46,59,17.29,3.67,34.63,3.67,34.63,1.07,45.13,1,50.38s.88,3.75,1.25,16.75S12.63,99.75,13,104.38s-2.37,27.5,0,35.75,10.25,20.37,11,23.06-.37,3.44,0,9.19a29,29,0,0,0,3.67,11.25s3,3.88,11.33,8S59,195,59,195"/><path class="cls-3" d="M35.11,192.5c-.85,1.46,9,9,12.15,9s5,.38,5-1.37.85-1.55-3.87-2.37S36,191,35.11,192.5Z"/><path class="cls-4" d="M6.75,34.5c1.06-1.25,8.75-1.25,8.75-1.25l10.12.63a60.29,60.29,0,0,1,7.25,0c3.63.25,6.88,6,6.88,6s4.88,6.08,5.13,7.42-12,1.33-12,1.33H22.38a14.57,14.57,0,0,1-8.87-3.87l-5.12-5.5S5.69,35.75,6.75,34.5Z"/><path class="cls-4" d="M58,22.63c-1.31-1.19-17.62,0-17.62,0s-7.5,1.38-7.5,2.63.63,5.31,1.63,6,8.31-.19,12.5,0,6.93,1.08,8.5.5S59.32,23.81,58,22.63Z"/><path class="cls-4" d="M29.5,25.5c-2.37,0-16.25,3.75-15.12,5.75s16.13,1.25,18.5,1.38,1.81.5,3.63,1.5,2.25,4.94,3.63,4.5,5.88-4.61,5.31-6S34.5,31.25,34.5,31.25L32.88,26.5A4.88,4.88,0,0,0,29.5,25.5Z"/><path class="cls-5" d="M56,85.63,61.38,91l4.12,8.38,7.38-4.5s9.29,1.48,11.88,0,8.38-8.5,8.38-8.5L94.63,85v4l-8.37,9.5L63.88,108.75S59.5,112,56,111s-6.67-10.87-6.67-10.87l5-7.62Z"/><g class="cls-6"><polygon class="cls-7" points="50 98.13 45 101.63 26.17 99.88 23 97.46 23 91.13 19.67 88.29 13.5 53.96 14.17 48.13 17.34 47.29 34.67 46.29 50 50.96 48.84 56.96 50 65.63 55.5 69.63 53.67 91.13 50 98.13"/><polygon class="cls-8" points="50 98.13 45 101.63 26.17 99.88 23 97.46 23 91.13 19.67 88.29 13.5 53.96 14.17 48.13 17.34 47.29 34.67 46.29 50 50.96 48.84 56.96 50 65.63 55.5 69.63 53.67 91.13 50 98.13"/><path class="cls-9" d="M21.17,53.29c-.79,2.33,0,6.33,0,6.33s2.63,4.21,6.17,5.17,12.82,1.33,14.67,0,1.85-1.33,2.67-4-1.55-4.23-.67-6.5,5.92-1.33,5.33-3-11.83-4-11.83-4-6.86-1.33-9.33,0S22,51,21.17,53.29Z"/></g><polygon class="cls-10" points="14.17 138.46 16.17 136.96 20.17 147.96 31.67 161.79 42.84 169.13 50.84 173.46 37.34 170.29 23.67 162.13 19.5 155.21 18 148.79 14.17 138.46"/><path class="cls-11" d="M75.67,181l5.83,1.67a2.87,2.87,0,0,1,0,3.67c-1.5,2-5.11,2.81-10.33,3.83L59,192.5,60.34,194h6.45s10-2,13.05-3.67L87.67,186l2-3.17,2.33-7.5s-3.17,2.5-6,4.33S75.67,181,75.67,181Z"/><path class="cls-12" d="M53.88,41.88c-2,1.13-2.9,4.49-3.62,8s.18,12.58,1,14.92,3.5,2.08,5.63,4.58S58.34,80.13,56,85.63s9.5,13.75,9.5,13.75a29,29,0,0,1,7.38-4.5c3.88-1.48,9.62,2.25,11.88,0s9.88-7.33,9.88-9.87S91.57,56,90,53.25,72,45.5,72,45.5L60,41.88S55.88,40.75,53.88,41.88Z"/><path class="cls-13" d="M66.79,49.29C60,51,60.17,60.79,61,64.79S65.5,72,65.5,72l2.33,10.67a6.41,6.41,0,0,1,0,6.67C65.67,92.63,61,89.13,60,92.46s-.5,8.42,2.5,7.67,6.17-4.63,10.33-6.73,10.5-1.77,10.5-1.77A6.08,6.08,0,0,0,88.17,86c.27-4.83-5.33-15.33-5.33-15.33l-7-14.5S73.57,47.63,66.79,49.29Z"/><path class="cls-14" d="M59,195s-14.19-.52-20-3.33a53.88,53.88,0,0,1-11.33-8s2.5,8,4.33,10,8.58,5.67,9.25,8.33,4.08,7.17,4.75,11-1,5.33-1,5.33a56.69,56.69,0,0,0-24.14,7.81c-11.47,7.14-10.44,17-9.53,22.53s4.33,12,18.7,17.36a75.11,75.11,0,0,0,29,4.14s21.25-2.38,26.75-4.5,14.13-8.94,16.62-12.12,4.13-10.19,3.5-15.75-4.37-8.5-7.12-10.81S85,220.06,82.25,219s-9.37-1.06-10.37-2.62.88-10.06.38-7.5,1.57-6.86,3.25-8.12,8.43-6.29,9-7.37,4.58-8.68,5.17-10.58-7,6-9.83,7.5S59,195,59,195Z"/><path class="cls-15" d="M43.68,223l-4.84,3.41s-3.73,3.25-3.73,6.09-.16,3.67,2.06,3.67,3.33-3.67,3.33-3.67l.83-6.09Z"/><path class="cls-15" d="M48.17,238.79c0-.83,2,.5,3.33,0S51.42,237,53.17,237s1.5,1.33,3.67,1.83,7-1.33,7.95,0-2.45,3.08-5.78,3.67a11.71,11.71,0,0,1-6.75-1.33S48.17,239.63,48.17,238.79Z"/><path class="cls-15" d="M74.09,223.38c1.42-.42,5.5,7.92,5.5,10.33s-1.75,4.19-3.17,6.06-6.75,3.78-6.75,3.78a31.64,31.64,0,0,1-4.88.58c-2.53.08.11-1.84-1.87-1S60.09,245,58,245.21s-2.72-.08-2.08-1.08,7.5-2.17,7.5-2.17l2.92-2.19H71.5s-1-.64-.08-2.14.33-.67,1.5-.67-.17,2,1.42,1.75,2.5-2.5,2.33-4.42S72.67,223.79,74.09,223.38Z"/><path class="cls-15" d="M14.34,246.46c.67-2.83,19.42-5.72,20-6.69s-.33-2.93,0-3.64,3.44,1.38,5.06,2.33,4.29,5.5,4.29,5.5,2.43,4.17,6.66,5.5,6.88,1.17,11.67,0,11.75-4.62,14.67-7.83,4.5-2.5,5-5.5-2.17-5-1.33-6.58,2-.25,6.33,3.58,8.17,10.17,8.17,13.83-6.17,6.17-9,8.83S63,264.63,63,264.63a58.81,58.81,0,0,1-13,0c-6.32-.83-15.83-4.67-15.83-4.67l-14.33-6.5S13.67,249.29,14.34,246.46Z"/><path class="cls-16" d="M12.5,245.29s1.13,6.34,5.62,10,17,8.38,17,8.38a50.05,50.05,0,0,0,18.52,3.88c10,0,31.5-4.25,35.87-6.87s14.37-13.68,14.37-13.68"/><path class="cls-4" d="M4.63,38.66c2.44-1.51,9.54,9.47,9.54,9.47S14,51,13.5,54s.81,9.79.81,9.79-6.7,2.13-7.81.5S4,61.58,3.57,58.81,2.18,40.17,4.63,38.66Z"/><path class="cls-1" d="M94.63,82.46S99.92,85,103.13,85s6.13,1.5,8.5-1.27,3.71-14.6,3.71-14.6l-2.59-4.78-11.62,8.78L93,74Z"/><path class="cls-17" d="M108.75,65.75a13,13,0,0,0,5.58-2,4.63,4.63,0,0,0,2-5.17s-1.33-5-1.17-7.5a9.76,9.76,0,0,1,2.17-4.83,35.92,35.92,0,0,0-1.17-6.42c-.83-2.58-7.42-1.22-7.42-1.22L102,41.88l-3.37,7.2Z"/><polygon class="cls-4" points="93.02 73.96 101.13 73.13 108.75 69.38 108.75 65.75 105.13 53.13 103.63 48.63 103.75 45.38 84.25 41.88 68.13 39.88 68.13 44.33 74.75 47 90 53.25 93.02 73.96"/><path class="cls-4" d="M85.63,32.63c0-.81,1.83.81,2.54,0a1.43,1.43,0,0,0,0-1.75,4.46,4.46,0,0,1,1.21-2.25c.94-.81,1.74-.31,3-.62l5-1.25S103,22.5,104.75,24s6.88,14.13,6.88,16-3.75,4.63-3.75,4.63-2.69,3.08-3.62,2.67.29-1.77-.5-1.92L91,43.08S85.63,33.44,85.63,32.63Z"/><path class="cls-4" d="M57.13,29.63c-.43-2.24,1.88-4.5,1.88-4.5s3.5-4.12,4.88-4.5,8.56,0,8.56,0S79.87,23.29,81,24s4.81,2.88,5.25,4.25-1.12,1.38-1.62,2.5.25,3.13.25,3.13l1.38,1.77-1.37,4.23s-15.41-2-16.75-1.25.66,2.94-1.34,3.25S57.56,31.86,57.13,29.63Z"/><ellipse class="cls-18" cx="60.13" cy="35.98" rx="55.38" ry="19.14"/><path class="cls-19" d="M50.75,29.38c-3.4.38-4.66,2.23-6,4.31s-3.94,5-4.31,6.69a4,4,0,0,0,0,2.44l10.75,2.81s1.44-3,2.69-3.6,3.69,0,3.69,0l7,1.79a1.22,1.22,0,0,0,1.83-.5c.63-1.29-.37-5.06-1.66-7.06a13.49,13.49,0,0,0-4-3.56l-4.25-2.5A11.07,11.07,0,0,0,50.75,29.38Z"/><path class="cls-20" d="M48.59,39.46c1.75-.33,3.92-3.25,6.33-3A6.91,6.91,0,0,1,59.34,38c2,1.25.5,3.75,1.58,3.75a4.13,4.13,0,0,0,3.33-2.62c.53-1.54.5-.71-.33-2.62s-3.58-3.83-6.33-4.58a26,26,0,0,0-7.25-.33,3.58,3.58,0,0,0-2.58,2.33C47.34,35.71,46.84,39.79,48.59,39.46Z"/><path class="cls-20" d="M44.07,41s.69-5,0-5-2.62,2.81-2.62,3.81,1.31,1.9,1.31,1.9.69.71,1,0Z"/><path class="cls-21" d="M59.07,31.75,65.5,20.63s3.57-6.37,4.63-7.62S81.07,1.63,81.07,1.63L83.63,0,82,3.44S71.7,12.36,70.94,13.69L66.19,22,60.75,32.69s-.94,1-1.69,1S59.07,31.75,59.07,31.75Z"/><path class="cls-22" d="M91,159.63c-1.25-3.07-.73-1.17-5.5-1.17a19.11,19.11,0,0,0-9.33,1.83A17.08,17.08,0,0,0,67.84,168c-2.05,3.67,0,7.83,0,7.83a6.94,6.94,0,0,0,1.83,3.33c1.64,1.83,5,1.83,5,1.83a25.13,25.13,0,0,0,7.17-.5c3.17-.83,9.17-5.17,9.17-5.17s1.37-.28,2-2.92a20.71,20.71,0,0,0,0-9.19C92.25,160.88,91,161.13,91,159.63Z"/><path class="cls-22" d="M89,124.63a1.9,1.9,0,0,1,1,1.83c0,1.42-2.83,6.17-2.83,10.5S90,158.09,90,158.09l-4.5.37s-.67-15.67-.67-21.5S89,124.63,89,124.63Z"/><path class="cls-22" d="M41.5,176.13c.88,1.38-2.87,1.88-2.87,5.5s.88,7.88,3.75,9,12.29,2.34,15,1.88,12.08-1,13.79-2.37,3.21-4,3.21-5.81-.75-5.19-2.37-6.81-8.62-2.21-8.62-2.21-7,2.21-6.87.58,5.22-1.25,6.75-3.62,1-6.25.13-9.06-4-6.44-6.87-8.56-7.77-3.62-12.82-4.5-8.8-1-12.43,0-5.87,2.5-7,4.13-.5,1.29-1.12,4.21a10.75,10.75,0,0,0,.75,5.92s1.93,4.63,5.5,6.25S40.63,174.75,41.5,176.13Z"/><path class="cls-22" d="M59.88,159.88s1.25-10.87,1.25-13.5-2.5-6.58-4.37-9.42-16-11.46-16-11.46,2,3.53,3.63,4.75,8.63,6.38,10.5,7.88,3.75,6,4.25,8.63-.71,11.71-.71,11.71Z"/><ellipse class="cls-23" cx="63.78" cy="137.28" rx="1.47" ry="1.16"/><circle class="cls-23" cx="74.57" cy="131.59" r="1.16"/><circle class="cls-23" cx="76.89" cy="134.28" r="1.16"/><circle class="cls-23" cx="73.42" cy="134.97" r="1.16"/><circle class="cls-23" cx="36.82" cy="137.28" r="1.16"/><circle class="cls-23" cx="39.13" cy="139.97" r="1.16"/><circle class="cls-23" cx="35.66" cy="140.66" r="1.16"/><circle class="cls-23" cx="40.94" cy="133.28" r="1.16"/><circle class="cls-23" cx="43.25" cy="135.97" r="1.16"/><circle class="cls-23" cx="39.78" cy="136.66" r="1.16"/><circle class="cls-23" cx="35.08" cy="129.9" r="1.16"/><circle class="cls-23" cx="37.39" cy="132.59" r="1.16"/><circle class="cls-23" cx="33.93" cy="133.28" r="1.16"/><circle class="cls-24" cx="43.78" cy="124.63" r="1.16"/><path class="cls-15" d="M46.13,217.13v1.63c0,2.13,9.84,5.27,13.79,4.21s10.83-1.25,10.83-2.92a6.42,6.42,0,0,0-.75-3.67c-.75-1.62-3.81,3.74-10.34,4.13S46.13,215.5,46.13,217.13Z"/><path class="cls-25" d="M68.38,199.63s-2.86,1.63-.74,2.63,6.45-.51,7.87-2.62,5.1-4.71,4.72-7-3.5,0-3.5,0a25.59,25.59,0,0,1-4.22,4.31Z"/><path class="cls-25" d="M48.67,203.88c-1.67,0-.5,1.63-.5,1.63s3,5,5.71,6.13,3.63.88,6.88,0,8.26-6,6.88-7.25-7.51,3.38-9.73,3.38S50.34,203.88,48.67,203.88Z"/><path class="cls-16" d="M39.39,199c4.29,3.57,15.59,6.63,19.61,6.63a36.48,36.48,0,0,0,13.75-3.06"/><path class="cls-16" d="M44.42,222a6.74,6.74,0,0,0,.75,3.67c1,1.58,5.55,4.16,7.67,4.42s4.17.9,6.17.75a53,53,0,0,0,7.42-.83c2-.5,5.75-3.58,5.75-3.58"/><path class="cls-26" d="M44.75,195c-.66,1.19,3.67,4.27,6,4.61.49.07,1,.13,1.53.17,1.93.16,3.79.16,3.79.16s6.57-.33,8.71-1,6.12-3.44,5.22-4-6.33.61-12.62,1S45.42,193.83,44.75,195Z"/><path class="cls-27" d="M11.25,91.13l1.13,5.75v4.75l1.13,4.25A23.34,23.34,0,0,0,18.75,109c2.42.88,22,3.63,29.38,4.25s5.75.63,10.88.63,21.11-2.07,24.75-2.67l14.88-2.45s4.5-5.87,4.5-11.87S94.63,89,94.63,89L64.79,94.25a98.38,98.38,0,0,1-16.16,2.5c-9.62.75-24.75-1.62-24.75-1.62Z"/><path class="cls-28" d="M53.84,201.55c1.25,1.58,2.89,1.8,6.92,1.41s5.08-2.33,5.08-2.33.58-.18.58-1.25-1.63-.37-1.63-.37-3.48.44-5,.7a63.81,63.81,0,0,1-6.62.16S52.59,200,53.84,201.55Z"/><path class="cls-29" d="M59,195s11.63.79,20-3.33,11.33-8,11.33-8A29,29,0,0,0,94,172.38c.38-5.75-.75-6.5,0-9.19s8.63-14.81,11-23.06-.37-31.12,0-35.75,12-24.25,12.34-37.25,1-11.5,1-16.75S116.15,33,114.92,33s-1,24.21-55.92,23.16S6.81,34.7,5,33.32s-3.9,11.8-4,17.05.88,3.75,1.25,16.75S12.63,99.75,13,104.38s-2.37,27.5,0,35.75,10.25,20.37,11,23.06-.37,3.44,0,9.19a29,29,0,0,0,3.67,11.25s3,3.88,11.33,8S59,195,59,195"/></g></g></svg>