<svg xmlns="http://www.w3.org/2000/svg" viewBox="0 0 243.19 689.44"><defs><style>.cls-1{fill:#1b3996;}.cls-2{fill:#b34a24;}.cls-3{fill:#bf5c2c;}.cls-17,.cls-21,.cls-22,.cls-23,.cls-24,.cls-25,.cls-26,.cls-27,.cls-28,.cls-29,.cls-31,.cls-4{fill:none;}.cls-4{stroke:#141516;stroke-width:0.15px;}.cls-11,.cls-17,.cls-21,.cls-22,.cls-23,.cls-24,.cls-25,.cls-26,.cls-27,.cls-28,.cls-29,.cls-31,.cls-4{stroke-miterlimit:10;}.cls-5{fill:#d26b36;}.cls-6{fill:#553a2e;}.cls-7{fill:#724736;}.cls-8{fill:#9b6145;}.cls-9{fill:#eb9f95;}.cls-10{fill:#b69a8f;}.cls-11,.cls-12{fill:#fff;}.cls-11{stroke:#5b5b5b;}.cls-13{fill:#a40806;}.cls-14{fill:#ef3133;}.cls-15{fill:#290000;}.cls-16{fill:#c47579;}.cls-17,.cls-21,.cls-24,.cls-26,.cls-28,.cls-31{stroke:#fff;}.cls-17,.cls-24,.cls-25,.cls-28{stroke-linecap:round;}.cls-17{stroke-width:0.02px;}.cls-18{fill:#e34045;}.cls-19{fill:#ec2425;}.cls-20{fill:#2850ce;}.cls-21{stroke-width:0.75px;}.cls-22,.cls-23{stroke:#2850ce;}.cls-23,.cls-25,.cls-27,.cls-28,.cls-29{stroke-width:0.25px;}.cls-25,.cls-27{stroke:#ec2425;}.cls-28{stroke-dasharray:0.18 0.4;}.cls-29{stroke:#2342b0;}.cls-30{fill:#2342b0;}.cls-31{stroke-width:1.5px;}.cls-32{fill:#0f2453;}.cls-33{fill:#f0070b;}.cls-34{fill:#141516;}.cls-35{fill:#8f5d52;}.cls-36{fill:#af6059;}.cls-37{fill:#e5968e;}.cls-38{fill:#3c241b;}.cls-39{fill:#2e272a;}</style></defs><title>Embiid</title><g id="Layer_2" data-name="Layer 2"><g id="Top_features" data-name="Top features"><polyline class="cls-1" points="74.93 229.37 69.5 229.37 67.22 221.66 66.9 199.32 75.39 195.05"/><polygon class="cls-1" points="149.15 254.34 109.13 254.34 79.98 234.53 74.03 227.69 71.56 215.45 101.48 210.2 147.34 208.56 174.78 212.63 179.41 231.75 173.45 246.34 149.15 254.34"/><ellipse class="cls-2" cx="130.66" cy="209.82" rx="42.12" ry="39.47"/><polygon class="cls-3" points="167.29 199.45 167.29 201.91 168.49 212.16 163.9 218.65 150.09 228.72 128.86 231.75 116.25 230.8 110.87 228.54 98.25 220.82 95.66 205.39 97.6 200.21 107.56 190.45 127 181.06 140.86 181.45 153.2 186.4 165.05 195.78 167.29 199.45"/><path class="cls-4" d="M100.06,191.29s3.37-5.34,9.07-7.18,12.21-5.38,18.62-6,6.51-1.42,13.11,0,8,3.17,8,3.17l8.83,4.71"/><path class="cls-4" d="M92.94,210.2a273.33,273.33,0,0,1,35.49-5.63c17.23-1.34,40.06,0,40.06,0"/><path class="cls-4" d="M95.68,222.11s1.77,3.27,6.72,5.71,8.48,3.93,8.48,3.93,10.37,2.78,14,2.78h3.59l13.08-1.79a32.55,32.55,0,0,0,9.71-2.48C156.3,228.08,157,227,157,227s6.83-4.78,9.51-7.95a34.48,34.48,0,0,0,4.39-6.88"/><polygon class="cls-5" points="107.92 210.72 124.83 207.38 139.18 206.4 147.34 208.56 151.84 210.98 155.24 214.86 145.53 222 134.16 224 120.01 223.34 109.95 217.32 107.92 210.72"/><path class="cls-6" d="M101.87,54.77s-4.25-2.1-5.41-1.92a2.75,2.75,0,0,0-1.68.84,2.32,2.32,0,0,0-1.1,1.08A28.56,28.56,0,0,0,93,61.88c.26.91,1.28,1.68,1.68,2.34s-.33,2.78,0,3.36,3.44,2.12,3.44,2.12.69,1.06,1.54,1.17a15,15,0,0,0,3.65-.88Z"/><path class="cls-6" d="M104.24,75.36s-1.43,23.57-1.94,24.19-7,1.65-7,1.65l2.43,6.31,3.81,8.62,9.88,5.79L125,130.82,136.57,125s2.79-6.93,7.11-9.6a12.23,12.23,0,0,0,5.25-7.38l1.36-6.9s-4.17-.34-4.57-1.07-.1-21-.1-21L134.84,94.21l-7.67,3.11-5.93-.1-8.06-4.27-7.86-18.35-2-4.59Z"/><path class="cls-6" d="M69,109.56s-19.43,5.38-23.51,8.55-11.2,13.16-13.6,16.9-5.35,14.14-6.22,17.1.21,5.85,0,8.35-11.49,19.07-13,22.34-5.63,19-5.63,19-5,9.31-5.44,13S0,224.45,0,226.91s2.72,7,2.72,7,2.92,6.53,4.66,7.77,2.54,1.8,4.08,1.55,4.08-2.33,6-2.72,14.19,1.62,18.46,0,30.35-18.65,31.28-18.85l5.63,4.47,5.05-.39,8.35,6.61,8.35,7.77,7.77,4.27s5.22,2.94,6.41,1.94,0-4.4,0-4.4l-12.37-7.12-3.76-4.14L101.1,236l3.37,1.94,6.86,4.66s2.91,0,3.5-2.07-1.68-3.89-1.68-3.89L93.45,225l-3.63-4.14,13,5.18s5.12,3,6.61,3.37,3.37-.91,4.4-2.46-.65-4.66-.65-4.66l-10.36-5.83-8-6.22-3-2.07,2.46-4.92,6-3.3H109s4.14.19,4.79-1-1-4.53-1-4.53-4-1.59-6-1.55L99,193l-6.22-.52-3.24.39,12.82-10.75s6.75-4.23,7-5.18,0-.83-.64-1.68-.92-.78-.92-.78L91.51,183l-10.23,7-10,7.25-4.4,2.07-16.71,5.25-6,1.62-5.18.91-7.38-.26s11-7.34,13.47-9.59,6-10,6-10l3-11.53s1.44-4.94,2.85-6.35L58.34,168l5.13-3.71,1.88-4.08,8.55-21v-22.8l-.78-4.53-1.42-4Z"/><path class="cls-6" d="M76.1,590l-5.44,2.85h-8l-7.77-1.42-3.37-30.7v-22s-.47-21.08,0-24.35a41.39,41.39,0,0,1,1-5.18l5.7-18.39,3.37-9.07,2.2-10.36V457.08l40.8,4.14v5.7l-2.07,13.21-2.33,7.25s-2.82,6.74-3.37,7.77-2,1-2.59,2.07-.52,15.54-.52,15.54l-1,12.18-3.37,11.4-4.4,16.84L79.47,576Z"/><path class="cls-6" d="M179.46,590l5.44,2.85h8l7.77-1.42,3.37-30.7V514.33a20.7,20.7,0,0,0-1-5.18l-5.7-18.39L194,481.69l-2.2-10.36V457.08L151,456.3v10.62L153,480.14l2.33,7.25,3.37,7.77,3.37,2.07-.26,15.54s.29,9.65,1,12.18l3.37,11.4,4.4,16.84,5.44,22.8Z"/><path class="cls-6" d="M148.93,34.85l-3.79-5.05-9-6.22L126,22.52l-8,2.62-8.74,2.62-5.34,5-.61,4-2.5,8.94-.49,5.44v4.18s2.29,17.1,2.43,17.78,7.38,14.67,7.38,14.67l2.91,6.51,8.16,3,5.93.1,7.67-3.11,10.78-15.15s2.78-4.76,2.72-5.54l-.19-2.64h2.33a6,6,0,0,0,1.26,0c.48-.08,2.79-2.91,3.11-3.87a34.26,34.26,0,0,0,1.26-4.37,20.35,20.35,0,0,0,0-3.89s.29-3.73,0-4.47-2-1.81-2-1.81l-2.14.26-1.55-1.26-2-11.75Z"/><path class="cls-6" d="M200.19,118.69s9.44,8.79,11.14,11.59,4.71,7,6.48,10.68,1.73,6.12,2.59,9.45c0,0-1,7.43,0,10.47s5.77,8.75,8,11.88,7.51,19.3,7.51,19.3l3.63,12.5a40.43,40.43,0,0,1,2.59,6.8,30.76,30.76,0,0,1,1,9.07c0,2.59-1,6.56-1.55,8.94a10.43,10.43,0,0,1-6,6.67c-3.11,1.27-4.21,0-9.59,0s-7.24,2.12-14,0S195,221.47,195,221.47l-3.24-1-6.28,4.27-2.85,1.07-4.86.75L166.39,239l-7.07,3.77-4.27.35v-2.56l.63-1.36,7.33-5,3.89-3.4,2.91-3s.2-.61.39-1.46-4.57,1.85-4.57,1.85l-4.37,3-3,2.53a4.88,4.88,0,0,1-2,1.17c-1,.15-2.35.09-2.82-.78a6.21,6.21,0,0,1-.1-3.47c.18-1.23,2.38-3.33,2.38-3.33l5.59-2.91,5.15-3.79,2.62-3.11,1.85-2.33v-3.11a2.82,2.82,0,0,1-.39-.87c-.1-.47-2.89.37-4.08.78s-2.08,1.37-3.59,1.65l-4.66.87-2.91.29a7.44,7.44,0,0,1-2.53-.49c-.73-.43-1-2.24-.87-3.4a4.8,4.8,0,0,1,2-3.11,54.93,54.93,0,0,1,6-1l4.86-1.17,4.47-2.72,1.46-3.11-2.53-2.53-3.11-1.6-2.82-1.8a5.06,5.06,0,0,0-1.94-1.17,37.49,37.49,0,0,0-5.39-.19,5.31,5.31,0,0,1-2.58-1.07,5.07,5.07,0,0,1-.49-3.69,4.47,4.47,0,0,1,1.36-1.46l6.12-.39,4.51.14a26.23,26.23,0,0,1,5.73,1.12,18.44,18.44,0,0,1,4.56,2.71l7,4.13,3.71,2.28,7,2.34,7.87,1.94s5.74.69,6.31.49l2.62-1-9.94-8.92-2.59-8.5-2.72-3.09-2-4.73-.56-2.41-.9-9.56L180,133.78l-3.13-25.13,8.79,2.27a22.64,22.64,0,0,1,7,1.85C195.94,114.33,200.19,118.69,200.19,118.69Z"/><path class="cls-7" d="M100.12,56.29c-.44-.91-3.44-1.94-3.44-1.94h-2s-.59,5.6,0,6.91,3.07,1.86,3.07,1.86l1.46,4.54s1.88.9,2.34.51,0-2.53,0-2.53L99.68,63V59.76S100.56,57.2,100.12,56.29Z"/><path class="cls-7" d="M117,96.64c-2.14-1.18-3.4-4.67-4.76-5.44s-5,.89-5.83,2.72.6,7.89,0,9.23l-2.53,5.63a3.8,3.8,0,0,0-.51,1.94c0,1.16,5.15,7.3,6.34,8l9.71,5.44s3.59,3.79,4.76,3.79,8.84-6.51,8.84-6.51l9.62-6.9s2.87-3.53,3.21-5-.87-10.78-.87-10.78-.13-3.66-1.07-4.76-8.94,1.07-8.94,1.07-4.64,3.89-6.8,4.37S119.1,97.82,117,96.64Z"/><path class="cls-7" d="M20,199.9c-1.89-.73-3.89-12.86-3.89-14.77s2.26-8.54,3.89-11.07,7-7.77,7-7.77l2.14-4.47L28,152.5l3.89-10.3,7.19-9.71,7.58-8.35,3.69-5.63,6.22-3.11L62,114v9.33l-5.63,3.11-13.6,16.32,3.11,10.3s2.46,8,4.08,7.58,3.79-3.71,5.63-3.69,1.6,9.25,0,10.88-5.44-.58-5.44-.58l-5.83-1.94-5.25-1.55L37.5,177.95l-8.35,12.82S21.9,200.63,20,199.9Z"/><path class="cls-7" d="M34.13,209.94s-17.32,6.48-18,8-.78,4.67,0,5.7,8.81,6.42,10.23,6.74a91.25,91.25,0,0,0,10.75,1c2.53,0,15.74-13.21,15.74-13.21s5.63-4.7,8-4.66,8.94,4.14,8.94,4.14,3.27,5.05,4.79,5.18,5.05-1.86,6-2.2,2.07-3.5,2.07-3.5,6,1.68,7.25.52,1.72-2,1.55-3.37S88.53,211,88.53,211s-6.7-4.79-6.48-6.41,7.25-.06,9.33-.84a6.76,6.76,0,0,0,3.89-4.92c.39-2-.68-3.43-2.07-3.37S82.57,201,81.8,199.9s6.48-5.76,6.48-5.76.76-2.85-.52-2.85-7,2.59-7,2.59-4.24,5.26-6.22,6-13.73,1.49-13.73,1.49Z"/><path class="cls-7" d="M91.64,500.09,77.13,501.9c-2,.87,2.11,15,3.63,23.57l.78,8.55,6.22-4.92,3.89-8.29Z"/><path class="cls-7" d="M60.3,493.09c2.2-1.31.23,11.81,0,18.91,0,0-1.54,12.08-2.59,13s-5.44-2.85-5.44-2.85-.68-7.06,0-9.59,6-11.4,6-11.4Z"/><path class="cls-7" d="M82.57,555.26c-.87-.78-10.36,8.29-10.36,8.29l-1.3,11.14v17.87l5.83-1.81,5.83-29.53S83.45,556,82.57,555.26Z"/><path class="cls-7" d="M103.3,464.34v9.84l-7.51,18.91s-3,7-4.14,7-3.37-4.92-3.37-4.92v-7.51l6.22-7.51,2.85-8.29s-.39-6.64,1.55-7.51A6.79,6.79,0,0,1,103.3,464.34Z"/><path class="cls-7" d="M92.87,466.47c-1.75.58-2.4,3.21-3.5,3.5s-12-1.75-14-1.75-6.61,2.33-6.61,3.69.1,4.86,1.17,6.22,11.37,8.55,13,8.55,5.63-2.82,6.61-4.47.75-4.08,1.81-4.86,3.21-2.14,3.43-3.5,1-5.83,1-7.38S94.62,465.89,92.87,466.47Z"/><path class="cls-7" d="M86.46,490.76c1,.39.39,3.21,0,4.08s-7.77,1.75-7.77,1.75a43.76,43.76,0,0,1-7.38,0,23.53,23.53,0,0,1-5.63-1.94s-3.27-.19-3.69-1.55.78-7.38,1.94-7.38,4.88,5.13,6,5.44l7.19,1.94S85.49,490.37,86.46,490.76Z"/><path class="cls-7" d="M80,527.48c-1.07,1-2.91,15.35-2.91,15.35V551s1.07,2.14,2.91,2.14,4.34-2.33,4.34-2.33V543S81.12,526.51,80,527.48Z"/><path class="cls-7" d="M163.92,500.09s12.34-.94,14.51,1.81-3.63,23.57-3.63,23.57L174,534l-6.22-4.92-3.89-8.29Z"/><path class="cls-7" d="M195.26,493.09c-.49,0,0,18.91,0,18.91s.62,13,2.59,13,5.44-2.85,5.44-2.85v-9.59c0-2.07-6-11.4-6-11.4S195.75,493.09,195.26,493.09Z"/><path class="cls-7" d="M173,555.26c1.68-.58,10.36,8.29,10.36,8.29l1.3,11.14v17.87l-5.83-1.81L173,561.22S171.3,555.85,173,555.26Z"/><path class="cls-7" d="M152.26,464.34c-.71,1.36,0,9.84,0,9.84l7.51,18.91s3.21,7,4.14,7,3.37-4.92,3.37-4.92.68-5.57,0-7.51-6.22-7.51-6.22-7.51l-2.85-8.29s-.81-6-1.55-7.51S153,463,152.26,464.34Z"/><path class="cls-7" d="M162.69,466.47s1.13,3.21,3.5,3.5,12.56-1.85,14-1.75,6.46,2.67,6.61,3.69a19.61,19.61,0,0,1-1.17,6.22c-.65,1.55-9.52,8.55-13,8.55s-6.61-4.47-6.61-4.47-.94-2.82-1.81-4.86a9.13,9.13,0,0,0-3.43-3.5s-2.56-5.93-1-7.38A2,2,0,0,1,162.69,466.47Z"/><path class="cls-7" d="M169.1,490.76c-1,1,0,4.08,0,4.08l7.77,1.75s5.35.7,7.38,0l5.63-1.94s2.59.29,3.69-1.55-.78-6.41-1.94-7.38-4.4,4.08-6,5.44-7.19,1.94-7.19,1.94S170.14,489.79,169.1,490.76Z"/><path class="cls-7" d="M175.51,527.48c1.36,0,2.91,15.35,2.91,15.35V551a3.36,3.36,0,0,1-2.91,2.14c-2.1,0-3.76-.19-4.34-2.33s0-7.77,0-7.77S174.15,527.48,175.51,527.48Z"/><path class="cls-7" d="M122.7,50.4l-7.87,1.85h-4.37l-3.79,1.07s-2.75.84-3.33,2.43,0,5.52,0,5.52L107.54,70s3.15,5,3.59,5.65a23.31,23.31,0,0,1,1.36,2.91l6.31,11.37,6.31,1.26H133l2.91-6.41,3-4.57L143,75.07l3.5-3,2.43-5.83,1.36-5V54.35s-.29-2-1.94-2.3-8.55,1.27-8.55,1.27l-5.34-.88-2.82-1.36Z"/><path class="cls-7" d="M131.73,28.15c-3.23-.77-11.07,1-11.07,1s-5.6,2.64-6.8,4A9.73,9.73,0,0,0,112,39.22c.28,1.42,5.05,1.23,5.05,1.23l8.65,3.63h5.54L134.35,43,145,42.53s.59-5-.68-7.09S138,31.06,138,31.06A21.62,21.62,0,0,0,131.73,28.15Z"/><path class="cls-7" d="M150.29,68.17l2.91-.49,1.26-2.53.68-3.07V56.42l-1.36-1s-1.21-.48-1.46,0,.39,1,.39,1l.58,2.53-.58,4.57-1.36,2.91Z"/><path class="cls-7" d="M176.85,108.65s15.67,5.74,17.63,7.07,18.71,23,20.72,27.27,3.37,20.59,3.37,20.59l9.07,19.22s5.23,11.85,6.22,13.61a3.8,3.8,0,0,1,0,3.51l-14-1.27L209,200.2l-1.67.47s-6.56-5.71-8.74-9.38-4.92-14.86-4.92-14.86l-1.94-3.66-11.79-39Z"/><path class="cls-7" d="M235.29,204.5l1.68,1.3s2.72,4,2.72,5.83-3-3.65-3.5-1.55,2.59,8.16,2.59,8.16L238,223l-5.18,5.18-7.38,3.24L219,229.37,210.68,223s-8.14-3.91-8.55-6.09.48-6.27,0-7.77a8.61,8.61,0,0,0-4.92-4.66c-2.14-.53-6.48,0-6.48,0s-2,1.73-3.23.91-1.75-1.49-1.28-3.5,2.94-2.46,2.94-2.46l13.11,3.63,8,2.46,7.12-1.17,4.92-1.42,5.05-1.3,5.83-.65,1.81,1.68Z"/><path class="cls-7" d="M184,213a3.32,3.32,0,0,0-1.36-1.72c-1-.5-2.66.74-2.66.74"/><path class="cls-7" d="M180,212s-2,2.29-2,3.4.78,1.07.78,1.07,2.53.29,3.89-.66A3.75,3.75,0,0,0,184,213"/><path class="cls-7" d="M182,203.22c-.38-.9-2.4-1.55-3.24-.4a3.07,3.07,0,0,0-.39,2.55,3.8,3.8,0,0,0-.39,2.21c.27.89,2,.39,2,.39l2-1.85A7,7,0,0,0,182,203.22Z"/><path class="cls-7" d="M175.64,192.52c-.4.33-.78,3.26-.78,3.26a1.45,1.45,0,0,0,0,1.11c.27.45,2.11.77,3.11,1a7.48,7.48,0,0,1,2,.93s.22-1.83-.36-2.44-2.75-1-3.24-1.45S176,192.19,175.64,192.52Z"/><path class="cls-7" d="M178.75,224s-.71-.12-.78-1.49,2.43-3,2.43-3l1.59-.87.65,1.36L181,222.51Z"/><path class="cls-7" d="M87.11,224.7,84.65,223l-3-1.55s-2.85-.45-2.85,1a2.68,2.68,0,0,0,1.55,2.19l3,1.56h3.11Z"/><path class="cls-7" d="M108.42,43.3c-.32-.88,5.1-3.28,7.5-4.27s10.64-1.36,12.51-1.36,7.86.75,10.3,1.75,7.09,1.92,7.09,2.91-10.26-.2-11.95,1-3.69,6.41-3.69,6.41,0,2.56-.78,3.6-2.28,0-2.28,0a14.18,14.18,0,0,1-1.8-3.21c-.55-1.56-2.61-6.77-3.56-7.77s-5.84-1.17-5.84-1.17l-5,2.33S108.74,44.18,108.42,43.3Z"/><path class="cls-8" d="M97.63,55c.48.07,1.24,1,1.24,1s-.15,2-.62,2.27a1.31,1.31,0,0,1-1.13,0l-.44-1.08S97.15,54.93,97.63,55Z"/><path class="cls-8" d="M99.46,61a3.24,3.24,0,0,0-1.17-.42,9.94,9.94,0,0,0-.51,2.56l.84,1.76a15.24,15.24,0,0,0,2.23,1.9,1.31,1.31,0,0,0,.73-1.13c0-.73-1.9-1.65-1.9-1.65V63S99.8,61.27,99.46,61Z"/><path class="cls-8" d="M96.68,54.35c-.15-.57-1.71-.24-2,0a9.91,9.91,0,0,0,0,3.88,1.45,1.45,0,0,0,1.54,0c.44-.4-.15-1.94-.15-1.94S96.83,54.92,96.68,54.35Z"/><path class="cls-8" d="M128.43,108.68c-1.63.33-4.66-.58-4.66-.58l-5.05-2.53-5-4.37s-1.16-2-2.72-.49a8.11,8.11,0,0,0-2.62,5.15c0,1.61,2.63,3.79,2.63,3.79A14.07,14.07,0,0,0,112.5,114c1,1.67,5.59,3,5.59,3s-9.57-2.83-8.16-1.31,9.88,4.73,10.57,4.76.9-.53,1.6-.56,1.57,1.59,1.67,2.12-1.65.48-1.65.48-1.39.64-.78,1.17,1.42,1.84,2.33,2a11.44,11.44,0,0,0,4.08,0c.61-.29.19-2.53.19-2.53s-1.67-.72-1.26-1.07,4.08-.68,4.08-.68,3.37.09,4.18-.49l3.79-2.72s3.13-2.18,3.5-3.69.56-1.55,0-2.53a1.46,1.46,0,0,0-1.36-.87s-4.47,4.36-5,4-.78-3.79-.78-3.79a5,5,0,0,1,.1-1.85c.25-.82,4.37-5,4.37-5l1.26-2.14a1.43,1.43,0,0,0-1.55-.78c-1.05.25-7.58,5.15-7.58,5.15A8.23,8.23,0,0,1,128.43,108.68Z"/><path class="cls-8" d="M67.81,113.2s-14.08,2.47-16.71,5.29,4.66,7.19,4.66,7.19,1.42,2.78-1.94,3.69-6-4.4-9.33,0S35.94,148,35.94,148s3.11,14.62,7,14.38,13.6-8.94,13.6-8.94,6.61-3.5,8.55-7S67.81,136,67.81,136l1.94-17.1Z"/><path class="cls-8" d="M51.88,162.41c1.94,2.39,0,16.58-.25,18.85s-4.57,11.48-5.58,13-10,8.24-11.75,8.66-12.39-5.16-12.93-6.52,0-11.07,0-11.07-.48-7.06,1-8.55l8.74-8.94s3.48-5,3.3-6.61-4.12-5.53-2.91-6.22,3.49-.85,4.47,0,3.76,13.47,7.19,12.43S49.93,160,51.88,162.41Z"/><path class="cls-8" d="M86.94,186.85s-3.59,2.21-3.59,3.15S90,192.07,90,192.07l2.72-2.78,9.46-9.49,1.42-1.72-4.79,1.72Z"/><path class="cls-8" d="M100.84,193.62c.49.65,0,3.36-.78,3.76s-3.89,0-3.89,0-1.81-.94-1.81-1.88a1.3,1.3,0,0,1,.78-1.23S100.35,193,100.84,193.62Z"/><path class="cls-8" d="M100.84,218c-.78-1,0-1.36,0-1.94s-3.76-1.42-3.76-1.42H94.36s-1.42.68-1.42,1.68,4,2.59,4,2.59l2.53,1.68s2.26,1.05,3.24.91a1.42,1.42,0,0,0,.91-2.07C103.17,218.65,101.61,218.94,100.84,218Z"/><path class="cls-8" d="M95.66,226.26v2.46S98,232.36,99.93,233s5.08,1.47,5.57,2.72a5.08,5.08,0,0,1,0,2.85s1.26,1,1.55.65-.41-2,0-2.59a5.88,5.88,0,0,1,2.07-1.17c-1.09-1.73-4.36-2.88-6.74-4.27l-4.14-2.33Z"/><path class="cls-8" d="M92.94,203.34s-8.18.06-8.29,1.23,6,3.82,6,3.82l1.55.78.78-1.94.52-1.68Z"/><path class="cls-8" d="M103.56,241.68a6.89,6.89,0,0,0-2.72.91l3.63,2.07s1-.85,1-1.49A1.84,1.84,0,0,0,103.56,241.68Z"/><path class="cls-9" d="M109.39,236l2.44.81a7.55,7.55,0,0,1,2,1.36,4.76,4.76,0,0,1,0,2,2.57,2.57,0,0,1-.78,1.27c-.58.45-2.44.21-2.44.21l-2.1-1.14-.59-.76v-1.61Z"/><path class="cls-9" d="M106.9,242.53a5.46,5.46,0,0,1,1.4.83,2.38,2.38,0,0,1,.28,1.17,4.26,4.26,0,0,1-.6,1.13c-.23.18-1.53-.78-1.53-.78l-1-.54Z"/><path class="cls-9" d="M111.34,222c-.46-.32-3.41.34-3.41.34-.36.8-.29,0-.59,1.32a4.17,4.17,0,0,0,0,2.15l1.12.68,2.05.9.62,0s.36.29,1-.89a5.24,5.24,0,0,0,.08-3.13A3.78,3.78,0,0,0,111.34,222Z"/><path class="cls-9" d="M111.29,194l-2.63-.34-1.76,1.26-.29,1.85V198l3.32.68a7.44,7.44,0,0,0,2.24,0c.52-.22,1.12-2.15,1.12-2.15l-.73-1.61Z"/><path class="cls-10" d="M92.44,194.2s-2.32,1.46-2.93.44.44-2.57.44-2.57l13.6-14s2.61-1,3-.7,0,.7,0,.7l-5.77,5.15L97,187.33l-2,3.8Z"/><path class="cls-8" d="M62.17,214.61c-1.36-1-6.61,3.43-6.61,3.43s-2.72,2.09-1.75,4,3.89,2.71,5.63,2.71a3.5,3.5,0,0,0,2.72-1.48s2.62-2.27,4.27-1.75a10.26,10.26,0,0,1,3.3,2.14s2.23,2.66,3.11,2.66,5.31-.65,5.31-.65L73.44,222l-4.86-2.47L63,218.94S63.53,215.64,62.17,214.61Z"/><path class="cls-8" d="M3.89,219.53c.1-1.48-1.94,0-1.94,0s-.87,3.61,0,5.18,3.89,4,3.89,4,1.75.42,1.75-1.25-2.82-3.32-2.82-3.32A18.29,18.29,0,0,1,3.89,219.53Z"/><path class="cls-8" d="M26.42,232.74c-2.82-1-11.46,0-11.46,0s-2.91.2-2.53,1.75,5.25,4.79,5.25,4.79l1.75.84H33.81s3.3-.19,3.3-2.14S29.24,233.73,26.42,232.74Z"/><path class="cls-8" d="M63.66,497.49c1.42,0,5.34,10.39,6.74,10.62s5.63-2.43,7.25-2.85a7.65,7.65,0,0,1,4.4.52c1.3.42,9.33,14.25,9.33,14.25v5.18S87.5,539,85.94,538.68s-2.07-3.11-2.07-3.11-3.4-14-4.14-14-2.2,14.25-2.2,14.25l-2.46,18.39s0,4.92-.52,6.48-2.59,2.59-3.11,4.4,1.3,18.65,1,20.21l-1.3,7.51-7.51.78-3.89-1s-2.57-9.23-2.85-12.43,0-13.21,0-13.21V546.72s-.62-17,0-18.13,2.85-4.76,2.85-7.25v-8s-1.54-15.07,0-15.8S62.24,497.49,63.66,497.49Z"/><path class="cls-8" d="M67,462.78c1,1.55,1.68,7.26,1.75,9.13a38.64,38.64,0,0,1-.87,6.22s.49,3.4-.87,4.08a1.38,1.38,0,0,1-1.94-.78s1.85-7,1.85-8.94-1.85-7.38-1.85-7.38v-2.33S66.06,461.23,67,462.78Z"/><path class="cls-8" d="M191.9,497.49c-2,.74-4.7,10.39-6.74,10.62s-7.25-2.85-7.25-2.85a6.85,6.85,0,0,0-4.4.52c-2.09,1.1-8.65,11.95-9.33,14.25a11.86,11.86,0,0,0,0,5.18s3.64,13.6,5.44,13.47,2.07-3.11,2.07-3.11,2.46-14.44,4.14-14,2.2,14.25,2.2,14.25l2.46,18.39.52,6.48s2.46,2.38,3.11,4.4-1,20.21-1,20.21l1.3,7.51,7.51.78,3.89-1s2.5-10.2,2.85-12.43,0-13.21,0-13.21V546.72s.78-14.51,0-18.13-2.33-4.47-2.85-7.25a38.8,38.8,0,0,1,0-8v-15.8A6,6,0,0,0,191.9,497.49Z"/><path class="cls-8" d="M188.53,462.78s-1.77,7.29-1.75,9.13a52.77,52.77,0,0,0,.87,6.22s0,4.08.87,4.08,1.52.49,1.94-.78-1.85-8.94-1.85-8.94l1.85-7.38s-.05-1.07,0-2.33S188.53,462.78,188.53,462.78Z"/><path class="cls-8" d="M120.89,54.35c.86,0,1.22,2.27,1.22,2.27s-4.75,4.62-4.76,5.48,3.76,5.78,3.76,5.78-2,1.76-3.29,1.32-3-6.46-3-6.46a18.29,18.29,0,0,0,0-3.3c-.19-.74-2.91,0-2.91,0A6.83,6.83,0,0,1,114,56.29,25.24,25.24,0,0,1,120.89,54.35Z"/><path class="cls-8" d="M136.59,55s-2.53-.66-3,0a1.72,1.72,0,0,0,0,1.61l1.51,2.14s.89,1.65,1.51,2.51-.18,1.35,0,2.41-2.23,2.65-2.23,2.65l-1.26,1.07v1.17s5.65,1.65,6.61.63-.67-1.21,0-2.41,2.25.39,2.82-1.23,0-2.95,0-4.29-2.6-1.9-2.23-3a1.21,1.21,0,0,1,1.39-.91,1.7,1.7,0,0,0,.15-1.84C141.3,54.35,136.59,55,136.59,55Z"/><path class="cls-8" d="M134.55,62.44a2.82,2.82,0,0,0-.83-.67c-.5-.26-1.45.18-1.45.18s-.5.71-1,.49a4.48,4.48,0,0,1-1.12-1,3,3,0,0,0-.83-.83,2.68,2.68,0,0,0-1.9-.24,3,3,0,0,0-1.51.78c-.49.34-.29.6-.29.6a6.49,6.49,0,0,0-1.46-.35,4.54,4.54,0,0,0-1.46.35,1.86,1.86,0,0,0-.58.33c-.2.2-.2.83-.2.83s-.37,2.39,0,2.61,1.17-.51,1.17-.51l.15-1.1,1.61-.32,1.37.39a8.32,8.32,0,0,0,2.22.2,12.31,12.31,0,0,0,2.17-.34,3.38,3.38,0,0,0,.83-.59,4.69,4.69,0,0,1,1.32,0c.48.1.67,1,.67,1l.61,1.13.53-.94Z"/><path class="cls-8" d="M118.31,78.58c.73.12,2.58,2.93,2.58,2.93a7.3,7.3,0,0,0,2.89,1.41c1.26.12,7.45,0,7.45,0a12.83,12.83,0,0,0,3-.29c.83-.3,1.76-1.88,1.76-1.88a11.65,11.65,0,0,1,1.46-3.15,2.28,2.28,0,0,1,1.56-1h1v2.78l-2,2.19-2,4.88L134,88.73l-4.83.78H126l-4.54-.93-3.17-3.66-1-2.87.28-.75-.28-2.38A.86.86,0,0,1,118.31,78.58Z"/><path class="cls-8" d="M134.79,46.79c.07-.34,3-.34,3-.34h3.67s2.44.36,2.44.59-2.54,0-2.54,0a5.26,5.26,0,0,1-1.85.44,2.77,2.77,0,0,1-1.39-.32l-.8-.2S134.72,47.13,134.79,46.79Z"/><path class="cls-8" d="M112.65,47c.15.27,3.12.12,3.12.12s4.61.23,4.61,0-3-.51-4.36-.51S112.5,46.76,112.65,47Z"/><path class="cls-8" d="M126.57,32.42c-.7.53-.61,2-1.25,3.11s-1.89.72-1.63,1.26,7.6.63,7.94,0-.44-1.08-1.2-2.19.26-2,0-2.67-1.51-.68-2.14-.68S127.27,31.9,126.57,32.42Z"/><path class="cls-8" d="M153.2,58.22c.56,0,1,1.6,1,1.6s.6,1.22.49,1.44-.7,0-1.46,0-1.36-.87-1.36-.87S152.64,58.22,153.2,58.22Z"/><path class="cls-8" d="M180,115.71a22,22,0,0,0,0,10L184,140s3.21,9.22,4.47,10.42,4.86,0,5.76,1.65.93,5.36,2.07,7.62,2.64,2.66,3.63,3.89-2.87.68-3.3,2.07a53.63,53.63,0,0,0-.59,7.12s-.78,7.9,0,10,6.22,8.5,6.22,8.5l5.18,6.09,4.22,2.42s7.39-1.09,8.21-1.16,6.22.55,6.22.55v-9.46l-1.3-9.29s-2.25-7.32-3.89-7.68-3.88.66-4.4,2.2,1.52,6.14,0,5.49-4.26-6.8-4.4-8.63,2.07-9.66,2.07-9.66l1.55-7.46a9.61,9.61,0,0,0,.26-5.56c-.81-2.85-4.14-8.18-4.14-8.18l-3.63-5.11s-2.74-5.09-3.89-7.93-6.21-6-8.29-8.13S180.7,113.29,180,115.71Z"/><path class="cls-8" d="M200.9,213.5c-.35-1.46-1.07,0-1.07,0a5.12,5.12,0,0,1-1.36,2.72c-1,.8-2.25-.33-3.59,0s-2.53,1.36-2.53,2.33.68,1,.68,1a7.6,7.6,0,0,0,3.59,0c1.44-.52,3.67-.21,4.27-1.55A7.18,7.18,0,0,0,200.9,213.5Z"/><path class="cls-8" d="M162.29,224.09l3.22-2.44s2.35-2,2.88-2.63,2.09-.12,2.29.29a3.46,3.46,0,0,1,0,1.46s-.4,2.74-1,3.32A15.17,15.17,0,0,1,166,226a6.15,6.15,0,0,1-2,0C163.32,226,161.85,224.43,162.29,224.09Z"/><path class="cls-8" d="M165.07,211.27a43.21,43.21,0,0,0,4.44-1.07,2.4,2.4,0,0,0,1.17-1.46,6.64,6.64,0,0,0,0-2.49c-.29-.85-2.58-.88-2.58-.88a14,14,0,0,0-3,2.15,5.76,5.76,0,0,0-1.17,2.39,3.11,3.11,0,0,0,.68,1.37Z"/><path class="cls-8" d="M173.46,198.88c-.27.57-1.71.57-2.24.57s-.88-.66-1.46-.86-.59,1.31-.59,1.31-.1,2.44.39,2.88c.27.44-.15.65.49.44s.17-2.26.63-2.63,2.19.1,2.19.1a11.88,11.88,0,0,0,2.68-.47c.6-.31,1.32-1.47.83-2a1.17,1.17,0,0,0-1.51-.34C174.14,198.16,173.73,198.31,173.46,198.88Z"/><path class="cls-8" d="M163,192c0-.35,1-1.17,1.9-1.51a5.92,5.92,0,0,1,3.32.24c.49.26.68.52.49,1.27s-1.23,1.15-1.8,1.32-.57.17-1.61,0S163,192.31,163,192Z"/><path class="cls-8" d="M168.49,235.6c-.22.55-3.51,1.71-3.51,1.71s-2,.27-2.24-.34.63-1.37.63-1.37l2.54-2.29s1.48-1.56,2-1.56S168.7,235,168.49,235.6Z"/><path class="cls-8" d="M176.39,210.2c-.56-.85-3.17,1.07-3.17,1.07l-2,1.61-.83,2v1l1.32-.83,1.07-1.76a4.26,4.26,0,0,0,2-.63C175.61,212,176.95,211,176.39,210.2Z"/><path class="cls-8" d="M162.73,237"/><path class="cls-9" d="M159.27,238.2l-2.1.78-1.29.88.19,1.71s0,.48.27.53,2.63,0,2.63,0l1.88-.87-.29-1.22-.78-.88Z"/><path class="cls-9" d="M157.8,227.79l-2.2,1.58-1,.67a6.57,6.57,0,0,0-.44,1.71c0,.6.56,2.33,1.45,2.33a7.17,7.17,0,0,0,2.65-1.29l1.93-1.34Z"/><path class="cls-9" d="M157.65,210.51l-.73-2a11.11,11.11,0,0,0-2.18.1c-.82.17-1.9,1.9-1.9,1.9a3.19,3.19,0,0,0-.54,2.19,2.9,2.9,0,0,0,.93,1.61c.35.38,2.39,0,2.39,0l2.62-1.27Z"/><path class="cls-9" d="M157.94,190.45a1.22,1.22,0,0,1-.77,1.12,4.64,4.64,0,0,1-2,.29,2.69,2.69,0,0,1-1.32-.91s-.88-.88-.88-1.57a10.86,10.86,0,0,1,.48-2.19,1.47,1.47,0,0,1,1-.59,30.94,30.94,0,0,1,3.22.29C158.23,187,157.94,189.6,157.94,190.45Z"/><path class="cls-8" d="M126.34,39.1v4.49l.34,6.54-1.08,2.7s-1.61,1.71-.59,2.4,1.2.38,2.7.69a3.36,3.36,0,0,0,3-.85c.29-.36-.43-1.93-.43-1.93a5.64,5.64,0,0,1-1.72-2.3c-.27-1.13.38-2.52.25-3.58l-.67-5.77a10.58,10.58,0,0,0,.15-2.39C128.15,38.61,126.34,38.71,126.34,39.1Z"/><path class="cls-11" d="M53.82,589.11c.89-.69,5.45,3.36,11.43,3.46s9.87-4,11.5-3.46-1.07,20.75-1.07,20.75l-11.75,6H55.5l-1.68-8.55S52.93,589.8,53.82,589.11Z"/><path class="cls-12" d="M53.82,607.33"/><polygon class="cls-11" points="219.66 675.21 216.16 679.22 206.7 681.55 197.25 680.52 192.19 679.35 184.56 672.1 184.56 670.41 182.09 663.78 176.78 661.35 174.59 659.79 171.86 654.61 171.86 662.22 177.97 667.31 181.03 669.38 182.77 671.32 181.71 675.73 182.77 681.55 186.76 686.48 191.42 688.94 198.54 688.94 209.88 688.94 216.94 687.9 222.9 685.05 224.32 683.89 223.15 674.82 222.02 672.03 219.66 675.21"/><path class="cls-11" d="M201.67,584.51c-1.73-.29-4.1,1.85-7.15,2.14s-8.79-.68-13.11-1.26-3.94-2.86-4.41-2,.54,28.58.54,28.58l11.93,2.72,4.53-.19,5.57-4.66S203.4,584.8,201.67,584.51Z"/><path class="cls-13" d="M207.16,612c.44.94,1.07,19.72,1.07,19.72s-.09.54-1.07.87a1.79,1.79,0,0,1-1.75-.49V620.16h-2.07l-.8-7.66S206.72,611.06,207.16,612Z"/><path class="cls-14" d="M184.55,672.1a63.67,63.67,0,0,0,5.41,5.67,23.34,23.34,0,0,0,2.23,2.43c.72.57,10.52,1.92,13.57,1.92a39.79,39.79,0,0,0,10.92-2.42,15.18,15.18,0,0,0,4-3.92c.69-1,1.36-1.06,1.36-3.74s-2.81-9.62-3.21-10.69-3.39-4.3-5.63-6.7-4.27-9.62-4.27-9.62l-1.75-5.25-.78-6.12s0-1,0-2.14a3.63,3.63,0,0,0-1-2.14v-9.23h-2.07l-.45,4.37c.46,0,.11-12.05-.35-12l-.06-2s.33-2.76-.47-3.21-1.52,0-2.43,0S195.1,611.6,194,612s-2.12,0-4.53,0-7.65-2-7.65-2l-4.1-.11s-1.82.09-2.26.58-.44,4.76-.44,4.76,0,.27-.9.49-1.12-.75-1.85-.58-1.64,1.91-1.75,3,0,5.59,0,5.59a4.67,4.67,0,0,0,0,1.89c.24.55,1.45-.07,1.75.58s-.49,8.26-.49,8.26l.78,2.23,2,6.12s-.57,4.66-.75,5.25-2,1.82-2,2.82a14,14,0,0,0,.06,3.76,20.09,20.09,0,0,0,2.73,5.18c.87,1.27.52.68,2.19,1.55s4.33,2.23,5,2.73S183.65,670.7,184.55,672.1Z"/><path class="cls-12" d="M199.58,607.33"/><path class="cls-15" d="M203.34,613.55s1.59-.5,2.07,0,.4,6.18,0,6.61-1.51-.44-1.84.24a17.56,17.56,0,0,0-.55,3.32s-1.39-10.16-.54-10.16Z"/><path class="cls-15" d="M174.59,618s0-1.22.44-1.22.44,1.22.44,1.22l-.44,4.54Z"/><polygon class="cls-12" points="198 617.37 194.83 621.42 193.07 621.17 192.19 622.93 192.78 624.49 195.09 625.27 197.41 625.81 198.24 626.98 198.48 627.47 199.95 627.17 199.95 625.51 199.95 624.1 199.58 622.69 199.95 621.13 198.82 620.59 199.12 618.63 198 617.37"/><path class="cls-16" d="M182.77,662.22s.33,2-.68,1.55-7.07-5.83-7.07-5.83a17.77,17.77,0,0,1-1.87-2.53,8,8,0,0,1,0-3.89,8.52,8.52,0,0,1,1.43-2.43l3.38,4.08Z"/><path class="cls-13" d="M174.59,642.57v6.54l4.39,6,3.8,7.14s.44-8,0-9.83-3.14-8.4-3.14-8.4-3.21-8.86-3.11-10.23-.47-3.37-1.06-3.37-3.61,4.14-3.61,4.14Z"/><polyline class="cls-17" points="177.97 631.34 190.18 633.75 204.74 636.97 192.96 637.63 183.16 646.56 194.31 644.33 207.74 648.46 197.79 648.38 191.28 653.14 201.22 653.8 211.61 657.89 201.74 659.36 193.04 659.92 201.26 653.76 209.78 651.53 197.5 648.38 189.23 649.34 194.5 644.51 206.64 644.73 192.96 638 180.23 639.31 190.25 633.83 201.88 630.39"/><path class="cls-18" d="M192.19,665.62c2.6-1.36,17.7-2.53,19.42-1.85s3,4,3,6-2.19,3.37-4.4,4.66-5.43,1.3-8.29,1.3-11.07-2.56-11.92-4S189.6,667,192.19,665.62Z"/><polygon class="cls-11" points="34.64 675.21 38.14 679.22 47.6 681.55 57.05 680.52 62.11 679.35 69.75 672.1 69.75 670.41 72.21 663.78 77.52 661.35 79.71 659.79 82.44 654.61 82.44 662.22 76.33 667.31 73.28 669.38 71.53 671.32 72.59 675.73 71.53 681.55 67.54 686.48 62.88 688.94 55.76 688.94 44.42 688.94 37.36 687.9 31.41 685.05 29.98 683.89 31.15 674.82 32.28 672.03 34.64 675.21"/><path class="cls-13" d="M47.14,612c-.44.94-1.07,19.72-1.07,19.72s.09.54,1.07.87a1.79,1.79,0,0,0,1.75-.49V620.16H51l.8-7.66S47.58,611.06,47.14,612Z"/><path class="cls-14" d="M69.75,672.1a63.67,63.67,0,0,1-5.41,5.67,23.34,23.34,0,0,1-2.23,2.43c-.72.57-10.52,1.92-13.57,1.92a39.79,39.79,0,0,1-10.92-2.42,15.18,15.18,0,0,1-4-3.92c-.69-1-1.36-1.06-1.36-3.74s2.81-9.62,3.21-10.69,3.39-4.3,5.63-6.7S45.39,645,45.39,645l1.75-5.25.78-6.12s0-1,0-2.14a3.63,3.63,0,0,1,1-2.14v-9.23H51l.45,4.37c-.46,0-.11-12.05.35-12l.06-2s-.33-2.76.47-3.21,1.52,0,2.43,0,4.48,4.26,5.57,4.66,2.12,0,4.53,0,7.65-2,7.65-2l4.1-.11s1.82.09,2.26.58.44,4.76.44,4.76,0,.27.9.49,1.12-.75,1.85-.58,1.64,1.91,1.75,3,0,5.59,0,5.59a4.67,4.67,0,0,1,0,1.89c-.24.55-1.45-.07-1.75.58s.49,8.26.49,8.26l-.78,2.23-2,6.12s.57,4.66.75,5.25,2,1.82,2,2.82a14,14,0,0,1-.06,3.76,20.09,20.09,0,0,1-2.73,5.18c-.87,1.27-.52.68-2.19,1.55s-4.33,2.23-5,2.73S70.65,670.7,69.75,672.1Z"/><path class="cls-12" d="M54.72,607.33"/><path class="cls-15" d="M51,613.55s-1.59-.5-2.07,0-.4,6.18,0,6.61,1.51-.44,1.84.24a17.56,17.56,0,0,1,.55,3.32s1.39-10.16.54-10.16Z"/><path class="cls-15" d="M79.71,618s0-1.22-.44-1.22-.44,1.22-.44,1.22l.44,4.54Z"/><polygon class="cls-12" points="56.3 617.37 59.47 621.42 61.23 621.17 62.11 622.93 61.52 624.49 59.21 625.27 56.89 625.81 56.06 626.98 55.82 627.47 54.35 627.17 54.35 625.51 54.35 624.1 54.72 622.69 54.35 621.13 55.48 620.59 55.18 618.63 56.3 617.37"/><path class="cls-16" d="M71.53,662.22s-.33,2,.68,1.55,7.07-5.83,7.07-5.83a17.77,17.77,0,0,0,1.87-2.53,8,8,0,0,0,0-3.89,8.52,8.52,0,0,0-1.43-2.43l-3.38,4.08Z"/><path class="cls-13" d="M79.71,642.57v6.54l-4.39,6-3.8,7.14s-.44-8,0-9.83,3.14-8.4,3.14-8.4,3.21-8.86,3.11-10.23.47-3.37,1.06-3.37,3.61,4.14,3.61,4.14Z"/><polyline class="cls-17" points="76.33 631.34 64.12 633.75 49.56 636.97 61.34 637.63 71.14 646.56 59.99 644.33 46.56 648.46 56.51 648.38 63.02 653.14 53.08 653.8 42.69 657.89 52.56 659.36 61.26 659.92 53.04 653.76 44.52 651.53 56.8 648.38 65.07 649.34 59.8 644.51 47.66 644.73 61.34 638 74.07 639.31 64.05 633.83 52.42 630.39"/><path class="cls-18" d="M62.11,665.62c-2.6-1.36-17.7-2.53-19.42-1.85s-3,4-3,6,2.19,3.37,4.4,4.66,5.43,1.3,8.29,1.3,11.07-2.56,11.92-4S64.7,667,62.11,665.62Z"/><path class="cls-1" d="M73.25,277.82l-3.89,7.77V291l-3.69,12.82-2.53,16.71L57.41,347l-1.72,50.9-1.88,24.48L48,450.74,41.58,455l22.21,6,24.48,1.81h19.29l9.2-3.89,11.66-67.23,5.83,23.7s1.42,6.22,2.72,10.1-2.59,11.14-2.33,15.54A56.48,56.48,0,0,0,137,451.9l3.89,7.38,26.42,3.5,26-5.7,19-2.14-11.2-36.07-1.94-37.69-1.55-33.81-5.83-26.81-4.66-29.14-2.33-3.5-5.05-10.1-50.9,10.49Z"/><path class="cls-1" d="M70.33,108.39s6.84-2,10-3.11l13.08-4.66L99.09,116l24.47,17.29,21.57-15.35,5.83-6,2.14-11.27,9.91,2.91,11.07,3.11,6,36.92L188.46,169,183,192.52l-.39,2.53-13.41-8-6.8-1.17s-13.8-18.5-32.25-15.93c-14,1.94-20.28,5.38-20.82,5.9a5.23,5.23,0,0,1-.85-1,.62.62,0,0,0-.68-.06l-8.16,4L87,185.14l-7.58,6.22L75.39,195l-6.61,3.37-1.93.9-2.79.89L61.2,167.07l10.3-22.34-.39-18.65Z"/><path class="cls-1" d="M67,223l7,4.66,4.08-2.14,16.51,14.57L109,246.73l1-1.38-.36-1.24,12.19,3.79s3.4,1.26,10.59,1.07a117.62,117.62,0,0,0,15.83-1.85l6.61-4.49,6.41.54,5.4-4.42,6.78-7.33,4.33-4.89,5.05-.78v22.93l5.63,22.15-8.74,7-50.9,10.49L73.25,277.82,67,266.55V223Z"/><polygon class="cls-19" points="181.37 242.82 181.07 244.77 189.65 267.79 188.46 271.93 188.68 272.95 189.94 272.25 191.36 267.65 182.09 242.82 181.37 242.82"/><path class="cls-20" d="M87.88,105.09c-1.81-.95-6.86,2.14-6.86,2.14s-5.57.2-6.22.65,2.42,24.8,2.42,24.8L74.8,149.14l-4.27,14.43S66,172.86,66,175s3.07,18.66,3.07,18.66l-.3,4.8,2.51-1.19L75.39,195l11.2-8.55,4.92-3.5L98,179.74l6.9-3.24a20.41,20.41,0,0,1,3.33-1.68,6.28,6.28,0,0,1,1.15,1.06s.63-.31,3.05-1.61,16-3.93,16-3.93l7.84.24s10.88,2.6,14.76,4.78,9,8.26,9,8.26l2.37,2.28,6.8,1.17,8.19,4.21S180,175.75,180,169.66a23.49,23.49,0,0,0-2-10l-5.19-16.06-2.12-27.91s.78-3.82.13-6.15S159.67,105,158,106.46s.2,8-2.06,10.61l-7.4,8.61s-18.2,16.64-23.67,16.39-22-12.31-26.69-18S89.7,106,87.88,105.09Z"/><path class="cls-1" d="M104.87,176.43"/><line class="cls-1" x1="69.61" y1="226.78" x2="68.15" y2="224.7"/><polygon class="cls-12" points="182.31 236.63 180.5 249.19 187.49 268.36 187.49 271.51 179.7 277.84 178.75 279.31 184.69 278.54 190.47 273.02 191.77 268.88 186.84 254.11 184 244.01 182.7 229.37 182.31 236.63"/><polyline class="cls-21" points="70.66 108.52 71.56 136.76 70.14 146.86 63.4 166.81 61.72 177.43"/><polyline class="cls-21" points="174.28 107.23 178.17 134.56 184.51 155.15 187.49 163.57 188.4 172.77"/><polygon class="cls-12" points="67.81 223.51 72.08 238.28 74.21 241.96 75.09 251.29 73.25 257.8 69.12 266.45 70.33 269.75 77.52 274.8 77.52 278.33 62.76 274.8 60.72 271.11 62.66 262.27 65.67 252.65 64.5 244.09 64.5 231.44 66.67 222 67.81 223.51"/><path class="cls-20" d="M65.09,318.62l7-11.92,5.44-9.46,4.76,2.33,3.79,2.72,5.44.39,4.27,4.66,5.05-.39,4.66-.39,9.33,1.17,2.33,12.82,4.27,22.93L124.54,359v33.81l-9.71,45.85s-1,6.41-4,8.94-13.53,4.27-13.53,4.27-14.75,1.94-19.3,1.94-15.28-6.22-15.28-6.22-6.37-8-7.06-11.66,9.39-68.78,9.39-68.78Z"/><polygon class="cls-20" points="131.15 315.9 131.15 332.61 131.15 341.54 135.81 345.43 138.92 325.61 140.86 312.79 131.15 315.9"/><path class="cls-20" d="M144,308.71v14.57l-3.11,20.59-3.3,13.6L134.84,366l2.14,7.19v33.61l2.43,10.3L145.14,443s-1,8.94,1.75,9.91,24.68,1,24.68,1l13-1.55,10.3-2.33s3.5-1,4.47-3.24,0-28.43,0-28.43l-2.53-15.74-3.5-58.68-5.25-25.45-3.5-13.21-2.33-3.3-8.16,2.91-7,2.33-8.16-.19Z"/><polyline class="cls-22" points="70.66 286.11 114.83 295.69 144.23 297.24 181.53 287.14"/><polyline class="cls-23" points="74.28 278.33 104.59 286.11 128.43 290.51 142.16 290.51 179.2 280.41"/><polyline class="cls-24" points="43.98 455.01 53.3 406.57 55.7 373.15 57.45 342.58 62.37 314.86 68.07 290.51 72.21 278.33"/><polyline class="cls-25" points="41.58 455.01 50.91 406.57 53.3 373.15 55.05 342.58 59.97 314.86 65.67 290.51 69.82 278.33"/><polyline class="cls-26" points="209.84 455.01 200.51 406.57 198.11 373.15 196.37 342.58 191.44 314.86 185.74 290.51 181.6 278.33"/><polyline class="cls-27" points="212.23 455.01 202.91 406.57 200.51 373.15 198.76 342.58 193.84 314.86 188.14 290.51 185.63 283.14"/><circle class="cls-28" cx="129.4" cy="297.11" r="6.61"/><polyline class="cls-29" points="52.27 440.24 55.7 449.57 60.3 455.01"/><polyline class="cls-29" points="109.63 404.88 97.34 396.33 91.12 388.17"/><polyline class="cls-29" points="95.79 381.18 104.59 388.17 107.92 396.53"/><path class="cls-30" d="M88.27,412.39h4.79c1.68,0,10.88,12,10.88,12v2.2l-6.48-5.44-5.05-6.61Z"/><path class="cls-30" d="M56.8,412.39s2.43,3.37,3.5,4.92,0,4.27,0,4.27"/><path class="cls-30" d="M55.7,417.84c1.1,0,1.75,6.48,1.75,6.48s-1.1,6.35-.87,7.77,8.91,10.36,8.91,10.36,3.24,3.37,1.94,4.27-7.12-7-7.12-7a75.53,75.53,0,0,1-4.6-6.09C55,432.28,54.6,417.84,55.7,417.84Z"/><path class="cls-30" d="M76.23,294.78H73.51l1.36,7.38-1.36,4.53L72.21,327l-1.55,21.5s3,13.73,4.92,13.73-.52-33.16-.52-33.16l-.13-12,1.3-14.38Z"/><path class="cls-30" d="M99.41,306.83c-.32-2.46-3.24-3.11-3.24-3.11l3.24,14.9,4.92,19.17s.51,6.15,2.46,5.44-1.3-11.66-1.3-11.66l-1.55-10-3-8.81A37.43,37.43,0,0,1,99.41,306.83Z"/><polygon class="cls-30" points="117.81 306.96 119.1 308.13 121.95 325.87 122.79 330.53 123.38 347.89 121.3 345.43 120.59 327.42 118.45 319.52 117.81 306.96"/><polyline class="cls-29" points="142.16 312.79 142.16 329.88 140.86 341.28 136.72 353.33"/><polyline class="cls-29" points="158.74 308.64 158.74 318.23 153.3 334.29"/><path class="cls-30" d="M176.48,301.65c.78.26.78,11.79.78,14.9s-2.72,15.15-2.72,15.15l1.36-15S175.7,301.39,176.48,301.65Z"/><path class="cls-30" d="M181.53,303.72v11.79l-1,21.89s1.3,11,0,10.49-1.3-11.14-1.3-11.14V325.81Z"/><polyline class="cls-29" points="158.74 345.43 163.59 325.81 169.03 310.46"/><path class="cls-30" d="M147.66,348.73c0-2.27,3.5-8,3.5-8L156,336.3S147.66,351,147.66,348.73Z"/><path class="cls-30" d="M156,300.16s3.5-2.27,4.66-1.36,1.17,4.92,1.17,4.92h-2.91Z"/><line class="cls-29" x1="163.01" y1="298.8" x2="181.6" y2="292.58"/><polyline class="cls-29" points="72.21 291.68 93.26 297.24 114.44 301.65"/><polygon class="cls-30" points="136 373.41 134.26 372.44 133.09 386.62 133.09 404.88 134.55 410.52 136.72 391.48 136 373.41"/><polyline class="cls-29" points="176.03 397.5 166.7 408.38 157.18 421.59"/><polyline class="cls-29" points="172.73 373.41 159.9 394.58 149.6 401.58"/><polyline class="cls-29" points="149.6 383.32 157.18 375.93 165.34 368.55"/><path class="cls-31" d="M69.12,259.75"/><polygon class="cls-32" points="68.01 233.92 68.41 238.71 71.19 238.71 69.46 240.54 68.63 242.77 69.6 245.77 68.01 243.94 66.77 245.77 66.58 241.89 65.01 240.28 67.24 239.44 68.01 233.92"/><polyline class="cls-29" points="72.76 265.38 82.28 271.5 99.09 275.58"/><polyline class="cls-29" points="100.25 263.83 108.8 279.66 112.2 284.42 100.25 279.95 90.12 278.33"/><polyline class="cls-29" points="161.26 243.17 159.42 250.81 159.42 269.65 150.09 283.16"/><path class="cls-30" d="M98.25,243.17l7.25,15.41s-.78-10.3-1.94-12.24S98.25,243.17,98.25,243.17Z"/><path class="cls-30" d="M181.08,252s2.91,7.19,2.91,9.52-4.4,5.44-5.25,5.44.45-5.44.45-5.44Z"/><polyline class="cls-29" points="158.15 281.6 162.33 279.18 169.13 277.81"/><line class="cls-29" x1="136" y1="286.1" x2="136" y2="271.99"/><polyline class="cls-29" points="107.54 264.6 116.87 280.34 119.49 283.16"/><path class="cls-30" d="M87.88,108.52c.86,1,2.59,8.42,2.59,8.42s3.85,4.92,3.11,6-7.77-3.11-7.77-3.11-2.72-1.43-3.63-3.11,0-5.83,0-5.83S87,107.49,87.88,108.52Z"/><path class="cls-30" d="M144.1,131.32c1,0,12.31-9.2,12.31-9.2s8.3-8.64,8.94-10.23a29,29,0,0,0,.91-5.83h0l-3.37,5.83L148.5,125.68l-4.4,4.47S143.14,131.32,144.1,131.32Z"/><path class="cls-30" d="M165.34,130.28l4-11.59a5.81,5.81,0,0,1,.78,2.27,43.76,43.76,0,0,1-1.3,5.31,18.09,18.09,0,0,1-1.1,3.21C167.25,130.28,165.34,130.28,165.34,130.28Z"/><polyline class="cls-27" points="174.56 109.16 178.17 134.56 184.51 155.15 187.49 163.57 188.4 172.77"/><line class="cls-27" x1="187.49" y1="163.57" x2="188.4" y2="172.77"/><polyline class="cls-27" points="70.66 108.52 71.56 136.76 70.14 146.86 63.4 166.81 61.72 177.43"/><polygon class="cls-12" points="77.22 160.26 77.22 156.31 82.78 153.82 88.56 152.07 93.98 152.07 95.73 153.6 95.73 163.92 92.44 167.14 88.42 168.23 85.34 168.23 84.69 168.23 84.69 174.74 87.54 174.74 87.25 179.86 83.08 181.11 79.27 182.79 79.2 177.43 80.44 177.43 80.44 159.82 77.22 160.26"/><polygon class="cls-20" points="84.54 158.07 84.54 164.8 88.12 164.06 90.54 163.11 90.54 157.34 87.54 156.97 84.54 158.07"/><path class="cls-12" d="M98.15,149.58l8.7-1.1.29,5-2.19.59v6h6.8v-7l-2.71.29-.29-5.49,8.48-1v5.19h-1.61l.73,17.85h3v2.41a40.89,40.89,0,0,0-4.39,1.05c-1.46.51-1.49.68-2.56,1.12s-2.63,1.24-2.63,1.24l-.15-5.46,1.83-.88-.15-4.61H105.9l.07,6.36,2.27-.07-.15,3.74-3.22,1.6H98.66v-4.31l2.12-.37-.15-17.48H98.15Z"/><path class="cls-12" d="M121.26,146.88v5.19h2.19l.44,16.68-2.63.8v2.25s2-.43,5.12-.81l5.12-.63V168.6l-3.29-.37-.59-16.17h3l-.37-5.19Z"/><path class="cls-12" d="M132.89,146.88v5h2.71l.8,16.25h-2.12l-.07,2.4a56.62,56.62,0,0,1,7.56,1.52l6.37,1.89,4.5,1v-9.14l-5.71.07v3.88l-6.07-.15-.37-17.55,2.85-.29-.22-4.9Z"/><polygon class="cls-12" points="157.25 170.35 154.91 170.35 154.91 174.96 164.34 177.52 164.34 173.06 162.73 172.4 162.73 166.33 167.71 167.36 167.71 172.77 166.02 172.77 166.02 177.52 173.78 180.45 173.78 174.96 171.51 174.45 171.66 155.51 168.66 151.7 159.95 149.14 156.66 151.48 157.25 170.35"/><polygon class="cls-20" points="161.56 154.7 161.56 160.92 166.24 162.16 166.24 155.58 161.56 154.7"/><polygon class="cls-19" points="181.24 244.1 181.06 245.28 188.97 267.69 188.97 274.44 189.91 273.55 189.91 267.35 181.24 244.1"/><polygon class="cls-19" points="183.29 277.81 184.97 283.58 186.5 283.16 183.29 277.81"/><polygon class="cls-19" points="73.2 240.23 74.21 241.96 72.76 249.43 67.28 260.25 66.69 265.88 68.45 270.14 68.1 271.51 66.69 270.14 65.01 266.18 65.67 259.37 71.19 248.62 73.2 240.23"/><polygon class="cls-12" points="59.4 177.06 64.04 177.63 63.99 183.89 66.9 199.32 64.06 200.21 59.4 177.06"/><polygon class="cls-19" points="62.51 177.52 62.56 181.11 66.05 199.59 64.94 200.05 60.98 177.29 62.51 177.52"/><line class="cls-27" x1="63.4" y1="166.81" x2="61.72" y2="177.43"/><polyline class="cls-26" points="92.3 102.25 100.06 117.33 124.58 133.78 138.66 124.49 150.06 113.2 152.54 101.79"/><path class="cls-12" d="M153.1,100.62c.77.16,2.8.82,2.8.82l-.45,1.65-5.93-1.91.28-1s2,.23,3,.39Z"/><polygon class="cls-12" points="93.45 100.62 94.96 100.41 95.07 101.01 93.72 102.11 91.58 103.43 89.72 104.14 88.75 102.2 93.45 100.62"/><polyline class="cls-27" points="92.85 103.31 100.06 117.33 124.58 133.78 138.66 124.49 150.06 113.2 152.29 102.97"/><polygon class="cls-33" points="151.53 102.9 151.88 101.05 152.36 100.5 152.88 100.57 153.57 100.73 153.1 102.49 153.02 103.18 151.53 102.9"/><polygon class="cls-19" points="92.85 101.2 92.52 100.93 91.11 101.41 92.3 103.89 93.74 103.43 92.85 101.2"/><polygon class="cls-12" points="171.98 107.58 172.87 106.3 176.58 106.92 176.85 108.64 171.98 107.58"/><polygon class="cls-19" points="173.81 109.29 173.81 106.46 174.91 106.64 175.29 109.06 173.81 109.29"/><polygon class="cls-12" points="190.72 172.55 186.28 190.25 184.77 196.4 182.63 195.05 184.89 184.47 185.94 178.11 186.09 172.99 187.49 172.25 188.31 171.82 190.72 172.55"/><polygon class="cls-33" points="187.7 176.99 186.19 185.81 183.33 195.49 183.8 195.78 185.21 190.5 186.68 186.38 187.02 184.5 187.94 178.89 188.4 176.6 189.15 172.08 188.31 171.82 187.49 172.25 187.7 176.99"/><path class="cls-34" d="M126.89,1.68V3.88l-1.61.37-.07-.88L123.6,3,121,2.85l1.76-1.17L122.94,0l-1.39.37h-1.61L117.6.88,115.44,2,114.6,3.8,113.36,2h-5.89v.88L109.34,4l.29,1.61h-2.78V7l-6.07.44L100,9.07H97.78L97,10.75l1.9,2-3.73-1.24-1.17,2,1.46,1.32L98,16.75l.07,1.83H93L90.32,20l-.22,1.32L90,22h2.93l-1,2.41-1.9.66-2.56,1.83L87.17,28l.37,1.1,2.34.07.8,1.1L88.42,31v1.17l1.46,2.12,1.39.8-1.61,1.83-2.56-.15-.59.66v2.27h2.71l-1.68,1.17v.8l.8.88,1.54.66V47l-2,1.54L89.66,51l1.32.07,3.8.62v2l1.32-.51,2.27.29,3.51,1.3V53.62l.05-1.54-.05-1.61,1.24-2.78v-3.8l.66-2.63,2-1.39L107.07,35l1.61-2.85,3.07-.88,6.14-4,3.8-.51,1.39-1.68,1.24.37H126l7.46.51,8.34,2.56,4,3.29,1.65,3.66-.1,1.83.07,2,.8,2.79.88,2.92.59,2.85.52,3.13,1.16,3.38s1.34-1.49,1.83-1.61a1,1,0,0,1,.85,0,9.07,9.07,0,0,1,1.15.49l.34-1.52.88-.81.59-2.19,1.17-.15,1.54-1.76-.66-1.54.66-.8,2.41-.51V41.47l-2.49-2v-2l3-.59-.8-2.34-2.41-.44,1.68-2.71.29-3.22,1.61-.78V26.11L161.64,26l-.07-1.32-4.39-.8-1.54-.8.37-2.93-1-1.24.29-1.1-1.61-.07-.07-2.78-.73-.51h-1l.44-1.1-3.15-.15-1.24.51.51-2.27L148.69,9l-2.56-.15-.66,1.39-1.83-.8-.22-1.9-.15-2.34-4.68.44-1.46.59-1-1.83-2.56-1.24-.37,1.1-.51-1L133,.59,130.84,0l-1.32,1-1.1-.51Z"/><polygon class="cls-35" points="136.3 75.47 138.04 74.58 135.23 71.74 131.63 70.26 128.43 70.26 123.08 71.19 119.59 73.73 118.32 75.19 120.07 75.56 119.17 77.4 120.07 79.54 122.6 80.8 127.65 81.3 131.92 81.21 134.65 80 136.59 78.25 136.3 75.47"/><polygon class="cls-36" points="120.75 74.58 135.71 74.58 133.87 72.91 130.66 71.74 127.36 71.74 123.28 71.83 120.75 74.58"/><polygon class="cls-37" points="120.75 76.43 121.24 78.25 122.6 80.09 126.29 80.8 131.44 80.8 133.38 79.15 135.03 77.21 135.03 75.91 127.89 75.91 120.75 75.7 120.75 76.43"/><polygon class="cls-38" points="122.61 81.81 126.49 81.52 128.43 81.52 132.34 81.52 133.15 81.81 131.32 82.33 125.03 82.33 122.61 81.81"/><path class="cls-34" d="M127.89,67.73a6.84,6.84,0,0,0-2.25-.73,16.15,16.15,0,0,0-3,.73l-4.29,2.52-2.19,1.48s-.2.81,0,1.12,1.17.31,1.17.31l4.17-2.91L124.77,69l3.11-.22Z"/><polygon class="cls-34" points="130.62 67 129.45 67.73 129.45 68.83 132.16 68.83 134.57 70.58 138.04 73.16 138.67 73.8 139.4 73.16 139.4 71.17 137.64 70.08 135.03 68.76 133.15 67.73 130.62 67"/><polygon class="cls-34" points="117.45 82.33 115.63 80.17 113.65 80.17 113.65 83.02 111.31 82.65 110.14 81.92 109.48 85.21 109.85 86.82 115.41 91.94 118.32 95.31 120.09 97.36 122.14 98.75 127.89 98.75 133.15 97.21 135.03 95.67 136.62 93.41 140.86 88.51 142.47 86.09 142.47 83.39 141.23 78.7 139.4 78.7 137.64 81.92 135.71 84.04 134.06 86.68 131.13 87.99 125.21 88.72 121.63 88.72 118.84 85.14 117.45 82.33"/><path class="cls-12" d="M120,49.23a12.39,12.39,0,0,0-3-.59,14.66,14.66,0,0,0-3.8,0,9.52,9.52,0,0,0-2.34,1.07,1.35,1.35,0,0,0,0,1,6.76,6.76,0,0,0,2.1,1,24.55,24.55,0,0,0,4.34,0,4.08,4.08,0,0,0,1.32-1.07c.39-.39.8-.28,1-.44S120.08,49.4,120,49.23Z"/><path class="cls-12" d="M136.19,49.09a1.41,1.41,0,0,1,.9-.45,30.76,30.76,0,0,1,5,0,2.21,2.21,0,0,1,.78.78l.25.41L142.2,51s-.85.46-1.34.68a6.2,6.2,0,0,1-2.51,0c-.68-.12-.61-.42-1.52-.52s-1.3-.33-1.45-.55a.82.82,0,0,1,.22-1Z"/><path class="cls-39" d="M113.77,49.79l0,.85s-.07,1,.4,1.12a11.21,11.21,0,0,0,1.78,0l.19-1.07.15-.94V49.2l-.22-.56a6.09,6.09,0,0,0-1.51-.13,3.43,3.43,0,0,0-1,.13Z"/><path class="cls-39" d="M138.25,50c.23.82.45,1.72.45,1.72a3.69,3.69,0,0,0,1,.08,3.15,3.15,0,0,0,.78,0,10.2,10.2,0,0,0,.2-1.92,5.51,5.51,0,0,0-.24-1.29h-2.15A2.59,2.59,0,0,0,138.25,50Z"/><path class="cls-34" d="M120,45.83c-.54.37-2.62,0-2.62,0l-1.54-.91s-1.64-.68-2.26-.4l-2.9,1.32-1.35.37s-.52-.36,0-.66l2.16-1.24,2.67-.69h2.34l1.76.44,1.5.29S120.5,45.46,120,45.83Z"/><path class="cls-34" d="M135,45.83c.49.37,2.62,0,2.62,0l1.54-.91a8,8,0,0,1,2.26-.4,13.11,13.11,0,0,1,2.9,1.32l1.35.37v-.66l-2.16-1.24-2.67-.69h-2.34l-1.76.44-1.5.29S134.54,45.46,135,45.83Z"/><polygon class="cls-38" points="122.39 57.09 122.61 58.04 122.39 58.52 121.33 59.14 121 59.83 119.97 61.37 119.58 62.25 119.76 63.02 119.21 62.28 119.21 61.59 119.76 60.49 120.38 60.05 120.91 59.03 121.48 58.41 122.21 57.9 122.39 57.09"/><polygon class="cls-38" points="133.22 57.78 133.22 58.44 133.77 59.03 133.95 59.58 135.05 60.05 135.38 61.11 135.08 63.93 135.52 63.93 135.52 63.02 135.52 62.21 135.71 61.19 135.71 60.64 135.38 59.87 134.46 59.43 134.1 58.81 133.22 57.78"/><path class="cls-34" d="M126.34,65c0-.3-1.24-.69-1.24-.69s-1.22-.76-1.57-.62a1.61,1.61,0,0,0-.62.66,9.28,9.28,0,0,0-.29,1.35c0,.32.44.77.44.77l1.17.22,1.06-.22S126.34,65.29,126.34,65Z"/><path class="cls-34" d="M134.06,65.17s-.73-1.24-1.21-1.24a2.6,2.6,0,0,0-1,.26l-1.17.73-.4.84v.62l1.24.29H133l.88-.4Z"/><path class="cls-38" d="M100.85,65.66c.22.07,0,.68,0,.68a1.39,1.39,0,0,1-1,0,2.25,2.25,0,0,1-.83-.68l-1.12-.49a1.19,1.19,0,0,1-.59-.44,5.81,5.81,0,0,1,0-1.72,3.65,3.65,0,0,1,0-1.11,2,2,0,0,1,.59-.93s.37-.67.68-.44.1.68.1.68l-.63.49-.34.63,0,1.33,0,.72.83.59,1,.63.78.24S100.63,65.59,100.85,65.66Z"/><path class="cls-38" d="M99.29,58.69s-.51-.34-.68,0,.34,1.37.34,1.37,0,.7.34.49.39-.93.39-.93Z"/><path class="cls-38" d="M101.49,57.09V58.3s-.47.22-.63-.15,0-.46,0-.46l-.54-1.4c0-.8-.34-1.08,0-1.22S101.49,57.09,101.49,57.09Z"/><path class="cls-38" d="M153.76,62.93c0-.41-1,0-1,0l-.44,1-.34.56s-1.84-.41-2,0,.2.81.2.81h1.32l.93-.37.63-.81S153.76,63.34,153.76,62.93Z"/><path class="cls-38" d="M154.54,64.73H154l-.59,1.94-.54.55s-.41,1.22,0,1.22.85-.93.85-.93L154.3,66Z"/><polygon class="cls-38" points="119.99 48.33 116.92 48.04 113.32 48.33 111 49.28 110.85 49.71 112.88 48.88 114.73 48.68 116.76 48.62 117.67 48.73 119.99 48.33"/><path class="cls-38" d="M135.21,48.29l2-.15h3.41a11.43,11.43,0,0,1,1.24.07,2.28,2.28,0,0,1,.62.46,5.67,5.67,0,0,1,.82.49c.06.1-.09.15,0,.24a1.66,1.66,0,0,0,.58.09,1.92,1.92,0,0,1-.73.15,1,1,0,0,1-.35-.23,1.79,1.79,0,0,0-.42-.52,2.47,2.47,0,0,0-.73-.28l-1.29-.07h-2.15l-1.17.1Z"/><path class="cls-38" d="M102.59,71l1.65,2.81,3.4,5.44,2.5,2.67L109.78,84s-2-2.07-2.33-2.49a22.42,22.42,0,0,1-1.08-2.82l-1.45-2.37Z"/><path class="cls-38" d="M142.47,86.09l2.08-3.77,1.26-3.08,1.26-5.44s.71-2.07.39-2.07-1.65,4.6-1.65,4.6L144.1,80.8l-1.63,2.58Z"/><path class="cls-38" d="M149.54,66.59c-.2-.3-.46.29-.46.29v2.58l.61.78s.57.24.73,0-.13-.37-.13-.37l-.33-.22-.51-.41V67.9l.1-1.07S149.75,66.89,149.54,66.59Z"/></g></g></svg>