<svg xmlns="http://www.w3.org/2000/svg" viewBox="0 0 236.25 43.51"><defs><style>.cls-1{fill:#1548ab;stroke:#1548ab;stroke-linecap:round;stroke-linejoin:round;stroke-width:2px;}.cls-2{fill:#fff;}</style></defs><title>header_1</title><g id="Layer_2" data-name="Layer 2"><g id="Text"><path class="cls-1" d="M31.71,6.84c-.48,2.24-5.44,5.76-6.56,6.18-.8.32-1.71-.11-1.71-.8C25,10.35,29,4.86,28.51,4.28c-.91-1-5.54,1.6-9.49,4.8-3.41,2.72-6.24,5.92-5.86,7.57.32,1.39,2.19,1.65,4.21,1.76a36.24,36.24,0,0,1,3.52-1c2.67-.48,4.75.64,3.73,2.24-2.24.64-10.56,4.48-15.62,9.54-7.52,7.52-2.83,11.14.59,10.88,8.32-.69,18-11.94,21.59-16.47.69-1.07,1.87-.48,1.33.75C30,29,20.89,40.64,11.83,42.4c-4.27.85-10.66-3-10.82-8C.9,30.77,2.92,27.26,7.35,23.74A23.64,23.64,0,0,1,13.48,20a5.52,5.52,0,0,1-4.75-6.18C9,11.21,11.88,7.9,15.4,5.29S23,.76,25.64,1,32.09,5.13,31.71,6.84Z"/><path class="cls-1" d="M31.77,30.61S40.4,18.83,44.29,17.45c1.44-.53,4.64.64,4.64,2.72-.59,2.61-2.77,7-3.89,9.33C45,29.49,53,19.58,57.2,18a3.28,3.28,0,0,1,4.32,3c-1.39,2.77-6.82,13.17-5.6,13.7,1.07.48,9-8.69,10.56-11.3,1-.91,1.49.27,1.23.8-.8,2.24-7.2,11-9.86,12.21s-6.5-.85-6.5-3.09c0-4,5.06-11.52,4.58-11.78C54.74,21,43.28,34.51,42.75,36.16c-1,1.28-5.17-.37-4.48-2.08.85-1.76,6.5-13.44,5.44-13.49S31.29,34.13,30.91,35.95c-.85,1.07-5.28-.8-5.17-2.19.11-2.19,7.78-14.45,8.37-16.69.91-.85,4.16.43,3.95,1.92C37.79,21,32,29.87,31.77,30.61Z"/><path class="cls-1" d="M62.26,33.12a135.73,135.73,0,0,1,7.68-17.38c2.93-5.65,5.38-9.54,6.13-11.62,1.65-.69,3.79.27,3.79,1.76,0,1.07-3.52,7.3-5.54,11.2-3.57,6.61-5.49,10.5-5.7,10.88.37-.59,4.9-8.05,9.54-10.4,2.72-1.39,6.61,1.39,6.77,3.15.21,3.2-3.68,10.5-8.05,14.18q1-.32,2.08-.8c3-1.33,8.69-7.73,10.45-10.4.85-1.28,1.76,0,1.33.85-1.28,2.56-6.4,8.85-10.4,10.88a17.23,17.23,0,0,1-8.85,1.65,11.58,11.58,0,0,1-5.17-1.71l-.21.37C65.09,37.87,61.73,34.51,62.26,33.12Zm4.9.75a3.13,3.13,0,0,0,2.93.85C74.15,34.08,82,19.58,79.43,19.2,77,18.83,70,29.28,67.17,33.87Z"/><path class="cls-1" d="M96,20.06c-.16,1.23-1.28,2.24-3,5.65-3,5.76-3.57,9.28-2,9,2.35-.37,8.85-8.37,10.56-11.09.91-1.23,2-.32,1.6.64-1.81,3.47-6.45,10-9.81,12-2.67,1.6-5.6-.05-6.77-1.49s-1.33-4.21,1.07-9.17c2.08-4.32,3.95-6.4,4.11-7.84C92.33,16.91,96.17,18.3,96,20.06Zm.69-6.13c-1.6-.32-1.81-2.24-.21-3.36a4.54,4.54,0,0,1,5-.16c1.07,1-.32,2.72-1.44,3.15A5.21,5.21,0,0,1,96.65,13.93Z"/><path class="cls-1" d="M108.27,20.06c-.16,1.23-1.28,2.24-3,5.65-3,5.76-3.57,9.28-2,9,2.35-.37,8.85-8.37,10.56-11.09.91-1.23,2-.32,1.6.64-1.81,3.47-6.45,10-9.81,12-2.67,1.6-5.6-.05-6.77-1.49S97.5,30.56,99.9,25.6c2.08-4.32,3.95-6.4,4.11-7.84C104.65,16.91,108.48,18.3,108.27,20.06Zm.69-6.13c-1.6-.32-1.81-2.24-.21-3.36a4.54,4.54,0,0,1,5-.16c1.07,1-.32,2.72-1.44,3.15A5.21,5.21,0,0,1,109,13.93Z"/><path class="cls-1" d="M131.46,20.32c-3.15,6.5-5.65,15.19-3.84,14.45,1.44-.59,8.74-9.49,10.13-11.46,1-.64,1.76,0,1.28.8-1,2-7.36,11.25-9.92,12.48-2.24,1.07-6.45-.16-6.88-3.47a10.06,10.06,0,0,1,.11-3c-1.92,2.88-4.21,5.7-6.18,6.66-1.55.69-4.85-1-5.6-3.15-1.23-3.52,4.64-14.77,9.6-17,2.51-1.12,5.33.11,7,1.33l.21-.43c3.94-7.73,6.13-12.1,7-13.22,1.17-1.49,4.69-1.49,5.33,0C139,5.5,137.43,8,131.46,20.32Zm-7.2,3.89c.59-1.44,1.33-3,2.24-4.91a3,3,0,0,0-2.67-.53c-3.68,1.33-10.08,15.57-8.9,15.73C115.89,34.67,121.55,28.48,124.26,24.22Z"/><path class="cls-1" d="M164.2,20.86a23.86,23.86,0,0,1,6.29-.21c1.6.37.27,2.13-.64,2.13-1-.64-3.84-.16-7,.53-4.74,8.74-7.57,16.47-7.68,18.29-1.76.69-4.8-1.07-4.53-2.88.27-2,3.41-8.69,6.08-14-2.19.53-3.41,1-4.69.8-1.71-.27-1.71-2.61-.64-3.2.8.27,3.57-.11,6.88-.64.59-1.17,1.12-2.19,1.49-2.83,1.65-3,4.58-8.58,6.56-11.57H165.1c-11.73,0-15.94,3-17,4.75-1.28,2.24-.48,3.2.16,3.63a.45.45,0,0,1-.21.85c-2.13.27-6.5-2.51-3.47-7.36S159.18,4.49,166,4.81c5.7.21,13.76,1.07,16-.21a1,1,0,0,1,.43,1.87c-1.71,1.12-5.17,1-11.09.91a1.72,1.72,0,0,1,.48,1.07A135.22,135.22,0,0,0,164.2,20.86Z"/><path class="cls-1" d="M176.57,29.44a8,8,0,0,0-.48,2.35c-.05,1.49.27,3.15,2,3.31,4.75.43,11.3-8.74,13.65-11.68.59-.64,2.08-.64,1.6.53-1.71,3.41-6.5,10.4-11.09,12.74-3.73,1.92-9-.43-10.4-4.1-2.08-5.49,4.16-14.66,8.69-16.69,3.95-1.76,8.85,2.19,8.21,5.12C188.19,23.74,180.88,27.63,176.57,29.44Zm1.17-2.72a31.73,31.73,0,0,0,7.3-6.29c1.49-1.92.32-2.77-1.65-1A29.16,29.16,0,0,0,177.74,26.72Z"/><path class="cls-1" d="M193.94,29.44a8,8,0,0,0-.48,2.35c-.05,1.49.27,3.15,2,3.31,4.75.43,11.3-8.74,13.65-11.68.59-.64,2.08-.64,1.6.53-1.71,3.41-6.5,10.4-11.09,12.74-3.73,1.92-9-.43-10.4-4.1-2.08-5.49,4.16-14.66,8.69-16.69,3.95-1.76,8.85,2.19,8.21,5.12C205.57,23.74,198.26,27.63,193.94,29.44Zm1.17-2.72a31.73,31.73,0,0,0,7.3-6.29c1.49-1.92.32-2.77-1.65-1A29.16,29.16,0,0,0,195.12,26.72Z"/><path class="cls-1" d="M226.63,20.32c-3.15,6.5-5.65,15.19-3.84,14.45,1.44-.59,8.74-9.49,10.13-11.46,1-.64,1.76,0,1.28.8-1,2-7.36,11.25-9.92,12.48-2.24,1.07-6.45-.16-6.88-3.47a10.06,10.06,0,0,1,.11-3c-1.92,2.88-4.21,5.7-6.18,6.66-1.55.69-4.85-1-5.6-3.15-1.23-3.52,4.64-14.77,9.6-17,2.51-1.12,5.33.11,7,1.33l.21-.43c3.95-7.73,6.13-12.1,7-13.22,1.17-1.49,4.69-1.49,5.33,0C234.2,5.5,232.6,8,226.63,20.32Zm-7.2,3.89c.59-1.44,1.33-3,2.24-4.91a3,3,0,0,0-2.67-.53c-3.68,1.33-10.08,15.57-8.9,15.73C211.06,34.67,216.71,28.48,219.43,24.22Z"/><path class="cls-2" d="M33,6.53c-.48,2.24-5.44,5.76-6.56,6.18-.8.32-1.71-.11-1.71-.8C26.3,10,30.3,4.56,29.82,4c-.91-1-5.54,1.6-9.49,4.8-3.41,2.72-6.24,5.92-5.86,7.57.32,1.39,2.19,1.65,4.21,1.76a36.24,36.24,0,0,1,3.52-1c2.67-.48,4.75.64,3.73,2.24-2.24.64-10.56,4.48-15.62,9.54-7.52,7.52-2.83,11.14.59,10.88,8.32-.69,18-11.94,21.59-16.47.69-1.07,1.87-.48,1.33.75-2.51,4.58-11.62,16.26-20.69,18-4.27.85-10.66-3-10.82-8-.11-3.63,1.92-7.14,6.34-10.66a23.64,23.64,0,0,1,6.13-3.73A5.52,5.52,0,0,1,10,13.51C10.31,10.9,13.19,7.6,16.71,5S24.28.45,26.94.72,33.39,4.82,33,6.53Z"/><path class="cls-2" d="M33.07,30.31S41.71,18.52,45.6,17.14c1.44-.53,4.64.64,4.64,2.72-.59,2.61-2.77,7-3.89,9.33,0,0,7.94-9.92,12.16-11.46a3.28,3.28,0,0,1,4.32,3c-1.39,2.77-6.82,13.17-5.6,13.7,1.07.48,9-8.69,10.56-11.3,1-.91,1.49.27,1.23.8-.8,2.24-7.2,11-9.86,12.21s-6.5-.85-6.5-3.09c0-4,5.06-11.52,4.58-11.78-1.17-.59-12.64,12.9-13.17,14.55-1,1.28-5.17-.37-4.48-2.08C40.43,32,46.08,20.34,45,20.28S32.59,33.83,32.22,35.64c-.85,1.07-5.28-.8-5.17-2.19.11-2.19,7.78-14.45,8.37-16.69.91-.85,4.16.43,3.95,1.92C39.1,20.66,33.34,29.56,33.07,30.31Z"/><path class="cls-2" d="M63.57,32.81a135.73,135.73,0,0,1,7.68-17.38c2.93-5.65,5.38-9.54,6.13-11.62,1.65-.69,3.79.27,3.79,1.76,0,1.07-3.52,7.3-5.54,11.2-3.57,6.61-5.49,10.5-5.7,10.88.37-.59,4.9-8.05,9.54-10.4,2.72-1.39,6.61,1.39,6.77,3.15.21,3.2-3.68,10.5-8.05,14.18q1-.32,2.08-.8c3-1.33,8.69-7.73,10.45-10.4.85-1.28,1.76,0,1.33.85-1.28,2.56-6.4,8.85-10.4,10.88a17.23,17.23,0,0,1-8.85,1.65,11.58,11.58,0,0,1-5.17-1.71l-.21.37C66.4,37.56,63,34.2,63.57,32.81Zm4.9.75a3.13,3.13,0,0,0,2.93.85c4.05-.64,11.94-15.14,9.33-15.51C78.28,18.52,71.3,29,68.47,33.56Z"/><path class="cls-2" d="M97.26,19.75C97.1,21,96,22,94.23,25.4c-3,5.76-3.57,9.28-2,9C94.6,34,101.1,26,102.81,23.32c.91-1.23,2-.32,1.6.64-1.81,3.47-6.45,10-9.81,12-2.67,1.6-5.6-.05-6.77-1.49s-1.33-4.21,1.07-9.17C91,21,92.84,18.9,93,17.46,93.64,16.61,97.48,18,97.26,19.75ZM98,13.62c-1.6-.32-1.81-2.24-.21-3.36a4.54,4.54,0,0,1,5-.16c1.07,1-.32,2.72-1.44,3.15A5.21,5.21,0,0,1,98,13.62Z"/><path class="cls-2" d="M109.58,19.75c-.16,1.23-1.28,2.24-3,5.65-3,5.76-3.57,9.28-2,9,2.35-.37,8.85-8.37,10.56-11.09.91-1.23,2-.32,1.6.64-1.81,3.47-6.45,10-9.81,12-2.67,1.6-5.6-.05-6.77-1.49s-1.33-4.21,1.07-9.17c2.08-4.32,3.95-6.4,4.11-7.84C106,16.61,109.79,18,109.58,19.75Zm.69-6.13c-1.6-.32-1.81-2.24-.21-3.36a4.54,4.54,0,0,1,5-.16c1.07,1-.32,2.72-1.44,3.15A5.21,5.21,0,0,1,110.27,13.62Z"/><path class="cls-2" d="M132.77,20c-3.15,6.5-5.65,15.19-3.84,14.45,1.44-.59,8.74-9.49,10.13-11.46,1-.64,1.76,0,1.28.8-1,2-7.36,11.25-9.92,12.48-2.24,1.07-6.45-.16-6.88-3.47a10.06,10.06,0,0,1,.11-3c-1.92,2.88-4.21,5.7-6.18,6.66-1.55.69-4.85-1-5.6-3.15-1.23-3.52,4.64-14.77,9.6-17,2.51-1.12,5.33.11,7,1.33l.21-.43c3.94-7.73,6.13-12.1,7-13.22,1.17-1.49,4.69-1.49,5.33,0C140.34,5.2,138.74,7.65,132.77,20Zm-7.2,3.89c.59-1.44,1.33-3,2.24-4.9a3,3,0,0,0-2.67-.53c-3.68,1.33-10.08,15.57-8.9,15.73C117.2,34.36,122.85,28.17,125.57,23.91Z"/><path class="cls-2" d="M165.5,20.55a23.86,23.86,0,0,1,6.29-.21c1.6.37.27,2.13-.64,2.13-1-.64-3.84-.16-7,.53-4.74,8.74-7.57,16.47-7.68,18.29-1.76.69-4.8-1.07-4.53-2.88.27-2,3.41-8.69,6.08-14-2.19.53-3.41,1-4.69.8-1.71-.27-1.71-2.61-.64-3.2.8.27,3.57-.11,6.88-.64.59-1.17,1.12-2.19,1.49-2.83,1.65-3,4.58-8.58,6.56-11.57h-1.23c-11.73,0-15.94,3-17,4.75-1.28,2.24-.48,3.2.16,3.63a.45.45,0,0,1-.21.85c-2.13.27-6.5-2.51-3.47-7.36s14.55-4.69,21.33-4.37c5.7.21,13.76,1.07,16-.21a1,1,0,0,1,.43,1.87c-1.71,1.12-5.17,1-11.09.91a1.72,1.72,0,0,1,.48,1.07A135.22,135.22,0,0,0,165.5,20.55Z"/><path class="cls-2" d="M177.87,29.13a8,8,0,0,0-.48,2.35c-.05,1.49.27,3.15,2,3.31,4.75.43,11.3-8.74,13.65-11.68.59-.64,2.08-.64,1.6.53-1.71,3.41-6.5,10.4-11.09,12.74-3.73,1.92-9-.43-10.4-4.1-2.08-5.49,4.16-14.66,8.69-16.69,3.95-1.76,8.85,2.19,8.21,5.12C189.5,23.43,182.19,27.32,177.87,29.13ZM179,26.41a31.73,31.73,0,0,0,7.3-6.29c1.49-1.92.32-2.77-1.65-1A29.16,29.16,0,0,0,179,26.41Z"/><path class="cls-2" d="M195.25,29.13a8,8,0,0,0-.48,2.35c-.05,1.49.27,3.15,2,3.31,4.75.43,11.3-8.74,13.65-11.68.59-.64,2.08-.64,1.6.53-1.71,3.41-6.5,10.4-11.09,12.74-3.73,1.92-9-.43-10.4-4.1-2.08-5.49,4.16-14.66,8.69-16.69,3.95-1.76,8.85,2.19,8.21,5.12C206.88,23.43,199.57,27.32,195.25,29.13Zm1.17-2.72a31.73,31.73,0,0,0,7.3-6.29c1.49-1.92.32-2.77-1.65-1A29.16,29.16,0,0,0,196.43,26.41Z"/><path class="cls-2" d="M227.93,20c-3.15,6.5-5.65,15.19-3.84,14.45,1.44-.59,8.74-9.49,10.13-11.46,1-.64,1.76,0,1.28.8-1,2-7.36,11.25-9.92,12.48-2.24,1.07-6.45-.16-6.88-3.47a10.06,10.06,0,0,1,.11-3c-1.92,2.88-4.21,5.7-6.18,6.66-1.55.69-4.85-1-5.6-3.15-1.23-3.52,4.64-14.77,9.6-17,2.51-1.12,5.33.11,7,1.33l.21-.43c3.95-7.73,6.13-12.1,7-13.22,1.17-1.49,4.69-1.49,5.33,0C235.5,5.2,233.9,7.65,227.93,20Zm-7.2,3.89c.59-1.44,1.33-3,2.24-4.9a3,3,0,0,0-2.67-.53c-3.68,1.33-10.08,15.57-8.9,15.73C212.37,34.36,218,28.17,220.74,23.91Z"/></g></g></svg>